<?xml version="1.0" encoding="UTF-8"?>
<svg width="1982px" height="105px" viewBox="0 0 1982 105" version="1.1" xmlns="http://www.w3.org/2000/svg" xmlns:xlink="http://www.w3.org/1999/xlink">
    <defs>
        <linearGradient x1="50%" y1="0%" x2="50%" y2="98.4808408%" id="linearGradient-1">
            <stop stop-color="#1B78D3" stop-opacity="0" offset="0%"></stop>
            <stop stop-color="#A8C2DA" offset="100%"></stop>
        </linearGradient>
        <linearGradient x1="50%" y1="0%" x2="50%" y2="98.4808408%" id="linearGradient-2">
            <stop stop-color="#112232" stop-opacity="0" offset="0%"></stop>
            <stop stop-color="#A8C2DA" offset="100%"></stop>
        </linearGradient>
        <linearGradient x1="50%" y1="0%" x2="50%" y2="98.4808408%" id="linearGradient-3">
            <stop stop-color="#1B78D3" stop-opacity="0" offset="0%"></stop>
            <stop stop-color="#A8C2DA" offset="100%"></stop>
        </linearGradient>
        <linearGradient x1="50%" y1="-20.2790833%" x2="50%" y2="100%" id="linearGradient-4">
            <stop stop-color="#021025" stop-opacity="0" offset="0%"></stop>
            <stop stop-color="#2F4C6C" stop-opacity="0" offset="100%"></stop>
        </linearGradient>
        <path d="M0,0 L45.7449457,46.574377 C48.4749507,49.3538815 52.1253058,51.0417994 56.0112224,51.3214855 L166.421552,59.2681923 C170.109864,59.533656 173.776267,58.5133712 176.797267,56.3808425 L192.510502,45.2888469 C195.472828,43.1977368 199.057597,42.1748605 202.67737,42.3878379 L225.644988,43.7391884 C229.168053,43.9464757 232.523737,45.3127562 235.189628,47.6253273 L244.57285,55.7649608 C247.482597,58.2890697 251.205279,59.6787226 255.05726,59.6787226 L389.872406,59.6787226 L389.872406,59.6787226 L403.266663,59.6787226 L645.298157,59.6787226 L658.048401,59.6787226 L793.140287,59.6787226 C796.979758,59.6787226 800.691207,58.2980637 803.597213,55.7887471 L813.077257,47.6027917 C815.739016,45.30438 819.083879,43.9469527 822.594578,43.7404293 L845.582502,42.388122 C849.205827,42.1749732 852.793957,43.2001059 855.75781,45.295219 L871.42977,56.3735465 C874.453001,58.5106335 878.123801,59.5331441 881.816514,59.2667999 L991.965024,51.3221192 C995.848539,51.042013 999.49665,49.3554107 1002.22577,46.5783504 L1048,0 L1048,0 L0,0 Z" id="path-5"></path>
        <linearGradient x1="50%" y1="0%" x2="50%" y2="100%" id="linearGradient-7">
            <stop stop-color="#101925" stop-opacity="0" offset="0%"></stop>
            <stop stop-color="#DAF0FD" stop-opacity="0.12" offset="100%"></stop>
        </linearGradient>
        <linearGradient x1="50%" y1="-20.2790833%" x2="50%" y2="100%" id="linearGradient-8">
            <stop stop-color="#021025" stop-opacity="0" offset="0%"></stop>
            <stop stop-color="#16222E" offset="100%"></stop>
        </linearGradient>
        <path d="M686.545549,84 L1293.46463,84 C1293.90801,84 1294.33882,84.1473324 1294.68935,84.4188397 L1303.17652,90.9927351 C1304.04977,91.6691277 1304.20935,92.9253618 1303.53296,93.7986126 C1303.47492,93.8735432 1303.41163,93.9442533 1303.34356,94.0102084 L1296.71176,100.436313 C1296.33866,100.797841 1295.83952,101 1295.32,101 L1217.51026,101 L1217.51026,101 L1210.81606,96.0769231 L768.996553,96.0769231 L762.046331,101 L684.669158,101 C684.156088,101 683.662641,100.802821 683.290861,100.44924 L676.671743,94.1541364 C675.87135,93.3929237 675.839588,92.1269921 676.6008,91.3265991 C676.666226,91.2578064 676.736466,91.1937594 676.810989,91.1349439 L685.306497,84.4300472 C685.659434,84.1514993 686.095934,84 686.545549,84 Z" id="path-9"></path>
        <filter x="-0.2%" y="-14.7%" width="100.5%" height="129.4%" filterUnits="objectBoundingBox" id="filter-10">
            <feGaussianBlur stdDeviation="2.5" in="SourceAlpha" result="shadowBlurInner1"></feGaussianBlur>
            <feOffset dx="0" dy="0" in="shadowBlurInner1" result="shadowOffsetInner1"></feOffset>
            <feComposite in="shadowOffsetInner1" in2="SourceAlpha" operator="arithmetic" k2="-1" k3="1" result="shadowInnerInner1"></feComposite>
            <feColorMatrix values="0 0 0 0 0.862745098   0 0 0 0 0.956862745   0 0 0 0 1  0 0 0 1 0" type="matrix" in="shadowInnerInner1"></feColorMatrix>
        </filter>
        <linearGradient x1="100%" y1="50%" x2="0.668569712%" y2="50.0039949%" id="linearGradient-11">
            <stop stop-color="#101A21" stop-opacity="0" offset="0%"></stop>
            <stop stop-color="#FFFFFF" offset="49.4835487%"></stop>
            <stop stop-color="#101A21" stop-opacity="0" offset="100%"></stop>
        </linearGradient>
        <polygon id="path-12" points="0 8.7436388 148 -4.95437025e-14 148 11.2563612 0 20"></polygon>
        <linearGradient x1="50%" y1="0%" x2="50%" y2="98.4808408%" id="linearGradient-14">
            <stop stop-color="#A8C2DA" offset="0%"></stop>
            <stop stop-color="#A8C2DA" offset="100%"></stop>
        </linearGradient>
        <rect id="path-15" x="3.3137085" y="3.3137085" width="16" height="16" rx="2"></rect>
        <filter x="-10.0%" y="-10.0%" width="120.0%" height="120.0%" filterUnits="objectBoundingBox" id="filter-16">
            <feGaussianBlur stdDeviation="1.5" in="SourceAlpha" result="shadowBlurInner1"></feGaussianBlur>
            <feOffset dx="0" dy="0" in="shadowBlurInner1" result="shadowOffsetInner1"></feOffset>
            <feComposite in="shadowOffsetInner1" in2="SourceAlpha" operator="arithmetic" k2="-1" k3="1" result="shadowInnerInner1"></feComposite>
            <feColorMatrix values="0 0 0 0 0.862745098   0 0 0 0 0.956862745   0 0 0 0 1  0 0 0 0.531031469 0" type="matrix" in="shadowInnerInner1"></feColorMatrix>
        </filter>
        <path d="M12.7279221,7.07106781 L15.5563492,9.89949494 C16.3373978,10.6805435 16.3373978,11.9468735 15.5563492,12.7279221 L12.7279221,15.5563492 C11.9468735,16.3373978 10.6805435,16.3373978 9.89949494,15.5563492 L7.07106781,12.7279221 C6.29001923,11.9468735 6.29001923,10.6805435 7.07106781,9.89949494 L9.89949494,7.07106781 C10.6805435,6.29001923 11.9468735,6.29001923 12.7279221,7.07106781 Z M11.5137085,12.3137085 L11.1137085,12.3137085 L11.1137085,13.3137085 L11.5137085,13.3137085 L11.5137085,12.3137085 Z M11.3137085,10.3137085 C10.7614237,10.3137085 10.3137085,10.7614237 10.3137085,11.3137085 C10.3137085,11.8659932 10.7614237,12.3137085 11.3137085,12.3137085 L11.3137085,12.3137085 L11.4303296,12.3069808 C11.8894115,12.2536591 12.2536591,11.8894115 12.3069808,11.4303296 L12.3069808,11.4303296 L12.3132814,11.3132814 L12.3069808,11.1970874 C12.2536591,10.7380055 11.8894115,10.3737579 11.4303296,10.3204362 Z M10.3137085,11.1137085 L9.3137085,11.1137085 L9.3137085,11.5137085 L10.3137085,11.5137085 L10.3137085,11.1137085 Z M13.3137085,11.1137085 L12.3137085,11.1137085 L12.3137085,11.5137085 L13.3137085,11.5137085 L13.3137085,11.1137085 Z M11.5137085,9.3137085 L11.1137085,9.3137085 L11.1137085,10.3137085 L11.5137085,10.3137085 L11.5137085,9.3137085 Z" id="path-17"></path>
        <filter x="-15.5%" y="-15.5%" width="131.1%" height="131.1%" filterUnits="objectBoundingBox" id="filter-18">
            <feGaussianBlur stdDeviation="1.5" in="SourceAlpha" result="shadowBlurInner1"></feGaussianBlur>
            <feOffset dx="0" dy="0" in="shadowBlurInner1" result="shadowOffsetInner1"></feOffset>
            <feComposite in="shadowOffsetInner1" in2="SourceAlpha" operator="arithmetic" k2="-1" k3="1" result="shadowInnerInner1"></feComposite>
            <feColorMatrix values="0 0 0 0 0.862745098   0 0 0 0 0.956862745   0 0 0 0 1  0 0 0 0.531031469 0" type="matrix" in="shadowInnerInner1"></feColorMatrix>
        </filter>
        <polygon id="path-19" points="0 8.7436388 148 -4.95437025e-14 148 11.2563612 0 20"></polygon>
        <rect id="path-21" x="3.3137085" y="3.3137085" width="16" height="16" rx="2"></rect>
        <filter x="-10.0%" y="-10.0%" width="120.0%" height="120.0%" filterUnits="objectBoundingBox" id="filter-22">
            <feGaussianBlur stdDeviation="1.5" in="SourceAlpha" result="shadowBlurInner1"></feGaussianBlur>
            <feOffset dx="0" dy="0" in="shadowBlurInner1" result="shadowOffsetInner1"></feOffset>
            <feComposite in="shadowOffsetInner1" in2="SourceAlpha" operator="arithmetic" k2="-1" k3="1" result="shadowInnerInner1"></feComposite>
            <feColorMatrix values="0 0 0 0 0.862745098   0 0 0 0 0.956862745   0 0 0 0 1  0 0 0 0.531031469 0" type="matrix" in="shadowInnerInner1"></feColorMatrix>
        </filter>
        <path d="M12.7279221,7.07106781 L15.5563492,9.89949494 C16.3373978,10.6805435 16.3373978,11.9468735 15.5563492,12.7279221 L12.7279221,15.5563492 C11.9468735,16.3373978 10.6805435,16.3373978 9.89949494,15.5563492 L7.07106781,12.7279221 C6.29001923,11.9468735 6.29001923,10.6805435 7.07106781,9.89949494 L9.89949494,7.07106781 C10.6805435,6.29001923 11.9468735,6.29001923 12.7279221,7.07106781 Z M11.5137085,12.3137085 L11.1137085,12.3137085 L11.1137085,13.3137085 L11.5137085,13.3137085 L11.5137085,12.3137085 Z M11.3137085,10.3137085 C10.7614237,10.3137085 10.3137085,10.7614237 10.3137085,11.3137085 C10.3137085,11.8659932 10.7614237,12.3137085 11.3137085,12.3137085 L11.3137085,12.3137085 L11.4303296,12.3069808 C11.8894115,12.2536591 12.2536591,11.8894115 12.3069808,11.4303296 L12.3069808,11.4303296 L12.3132814,11.3132814 L12.3069808,11.1970874 C12.2536591,10.7380055 11.8894115,10.3737579 11.4303296,10.3204362 Z M10.3137085,11.1137085 L9.3137085,11.1137085 L9.3137085,11.5137085 L10.3137085,11.5137085 L10.3137085,11.1137085 Z M13.3137085,11.1137085 L12.3137085,11.1137085 L12.3137085,11.5137085 L13.3137085,11.5137085 L13.3137085,11.1137085 Z M11.5137085,9.3137085 L11.1137085,9.3137085 L11.1137085,10.3137085 L11.5137085,10.3137085 L11.5137085,9.3137085 Z" id="path-23"></path>
        <filter x="-15.5%" y="-15.5%" width="131.1%" height="131.1%" filterUnits="objectBoundingBox" id="filter-24">
            <feGaussianBlur stdDeviation="1.5" in="SourceAlpha" result="shadowBlurInner1"></feGaussianBlur>
            <feOffset dx="0" dy="0" in="shadowBlurInner1" result="shadowOffsetInner1"></feOffset>
            <feComposite in="shadowOffsetInner1" in2="SourceAlpha" operator="arithmetic" k2="-1" k3="1" result="shadowInnerInner1"></feComposite>
            <feColorMatrix values="0 0 0 0 0.862745098   0 0 0 0 0.956862745   0 0 0 0 1  0 0 0 0.531031469 0" type="matrix" in="shadowInnerInner1"></feColorMatrix>
        </filter>
    </defs>
    <g stroke="none" stroke-width="1" fill="none" fill-rule="evenodd">
        <g id="画板" transform="translate(-246.000000, -750.000000)">
            <g id="编组-51" transform="translate(247.000000, 750.000000)">
                <path d="M0,7.83825564 L113.072641,22.217807 C115.992971,22.589188 118.964984,22.1903968 121.66099,21.0654035 L131.439174,16.9851485 C134.063955,15.8898761 136.951717,15.4824005 139.800079,15.8053888 L438.246954,49.6475846 C445.839276,50.5085112 452.854764,53.9131344 458.023029,59.2449336 L483.403788,85.4287911 C488.899231,91.0981206 496.469677,94.5757491 504.577307,95.1552503 L659.075898,104.053915 M1322.7577,104.048811 L1474.91745,95.158141 C1482.9136,94.5761888 1490.38729,91.1748603 1495.8588,85.6275893 L1522.05167,59.0720222 C1527.20476,53.8475795 1534.14507,50.5160218 1541.64461,49.666825 L1840.59558,15.8156235 C1843.50485,15.4861977 1846.45387,15.9188993 1849.12101,17.0665347 L1858.22126,20.9822607 C1860.95987,22.1606504 1863.99417,22.5846589 1866.97593,22.2056249 L1980,7.83825564" id="形状" stroke="url(#linearGradient-1)" opacity="0.203678676"></path>
                <path d="M135,6 L442.145609,40.3912642 C449.527484,41.2178169 456.391884,44.5866789 461.561847,49.9202295 L490.645145,79.9237815 C493.773791,83.1514238 497.99688,85.0916395 502.483812,85.3628251 L658.549623,94.7952817 C661.945607,95.0005315 665.269101,93.7546176 667.69326,91.367508 L677.605715,81.6065483 C679.850608,79.3959657 682.874816,78.1569173 686.025406,78.1569173 L761.058379,78.1569173 C762.606474,78.1569173 764.139944,77.8573684 765.574237,77.2747869 L773.066754,74.231475 C774.501047,73.6488936 776.034518,73.3493446 777.582612,73.3493446 L990.587036,73.3493446 L990.587036,73.3493446 L1203.244,73.3493446 C1204.81095,73.3493446 1206.36273,73.6562344 1207.81173,74.2526858 L1215.10197,77.2535761 C1216.55096,77.8500275 1218.10275,78.1569173 1219.6697,78.1569173 L1294.90478,78.1569173 C1298.05087,78.1569173 1301.07114,79.3924441 1303.31522,81.5974495 L1313.26339,91.3724123 C1315.68966,93.7564433 1319.01372,94.9987652 1322.40886,94.790412 L1476.0267,85.363188 C1480.45375,85.0915085 1484.62463,83.194873 1487.73928,80.0370947 L1517.62192,49.740673 C1522.77218,44.519104 1529.55977,41.2251348 1536.84851,40.4101556 L1844.59453,6 L1844.59453,6" id="直线备份" stroke="url(#linearGradient-2)" stroke-width="2"></path>
                <path d="M462,7 L507.723449,53.5524911 C510.466407,56.3451829 514.137975,58.0354431 518.043249,58.3033617 L634.213377,66.2731325 C638.028106,66.5348394 641.810432,65.4217466 644.875315,63.135453 L660.350196,51.5917444 C663.406647,49.3117411 667.176897,48.1982857 670.981623,48.4520009 L689.44186,49.6830077 C693.08915,49.9262245 696.543196,51.4109917 699.229288,53.8902627 L708.487925,62.4360115 C711.443428,65.1639492 715.317917,66.6787226 719.339937,66.6787226 L1260.858,66.6787226 C1264.86739,66.6787226 1268.73066,65.1734287 1271.68309,62.4608066 L1281.03673,53.8669171 C1283.71929,51.4022446 1287.1626,49.926781 1290.79744,49.6844431 L1309.2781,48.45232 C1313.08644,48.1984148 1316.86009,49.3142756 1319.91791,51.598488 L1335.35201,63.1278736 C1338.41892,65.4188808 1342.20561,66.5343507 1346.02474,66.2718123 L1461.93287,58.3039378 C1465.83582,58.0356371 1469.50523,56.3466814 1472.24735,53.5563836 L1518,7 L1518,7" id="直线-3" stroke="url(#linearGradient-3)" opacity="0.19653611"></path>
                <g id="形状结合" transform="translate(466.000000, 0.000000)">
                    <mask id="mask-6" fill="white">
                        <use xlink:href="#path-5"></use>
                    </mask>
                    <use id="蒙版" fill="url(#linearGradient-4)" xlink:href="#path-5"></use>
                    <path d="M62,7 L5.56228101,59 L-58,59 L-1.56228101,7 L62,7 Z M149,7 L92.562281,59 L29,59 L85.437719,7 L149,7 Z M236,7 L179.562281,59 L116,59 L172.437719,7 L236,7 Z M323,7 L266.562281,59 L203,59 L259.437719,7 L323,7 Z M410,7 L353.562281,59 L290,59 L346.437719,7 L410,7 Z M497,7 L440.562281,59 L377,59 L433.437719,7 L497,7 Z M584,7 L527.562281,59 L464,59 L520.437719,7 L584,7 Z M671,7 L614.562281,59 L551,59 L607.437719,7 L671,7 Z M758,7 L701.562281,59 L638,59 L694.437719,7 L758,7 Z M845,7 L788.562281,59 L725,59 L781.437719,7 L845,7 Z M932,7 L875.562281,59 L812,59 L868.437719,7 L932,7 Z M1019,7 L962.562281,59 L899,59 L955.437719,7 L1019,7 Z M1106,7 L1049.56228,59 L986,59 L1042.43772,7 L1106,7 Z" fill="url(#linearGradient-7)" mask="url(#mask-6)"></path>
                </g>
                <g id="矩形">
                    <use fill="url(#linearGradient-8)" fill-rule="evenodd" xlink:href="#path-9"></use>
                    <use fill="black" fill-opacity="1" filter="url(#filter-10)" xlink:href="#path-9"></use>
                </g>
                <path d="M772.30157,99 L1208.57586,99 C1208.90723,99 1209.2334,99.0823333 1209.52507,99.2396006 L1211.04035,100.056641 C1211.45355,100.279438 1211.60791,100.795016 1211.38511,101.208216 C1211.27027,101.421198 1211.0701,101.575141 1210.83478,101.631458 L1205.34577,102.945075 C1205.19329,102.981565 1205.03706,103 1204.88028,103 L776.080429,103 C775.936271,103 775.792536,102.984414 775.651729,102.953514 L769.594566,101.624263 C769.140939,101.524714 768.853903,101.076277 768.953451,100.62265 C769.012113,100.35534 769.197186,100.133296 769.449557,100.027441 L771.527983,99.155667 C771.772949,99.0529188 772.035928,99 772.30157,99 Z" id="矩形备份" fill="#DCF5FF"></path>
                <path d="M772.30157,99 L1208.57586,99 C1208.90723,99 1209.2334,99.0823333 1209.52507,99.2396006 L1211.04035,100.056641 C1211.45355,100.279438 1211.60791,100.795016 1211.38511,101.208216 C1211.27027,101.421198 1211.0701,101.575141 1210.83478,101.631458 L1205.34577,102.945075 C1205.19329,102.981565 1205.03706,103 1204.88028,103 L776.080429,103 C775.936271,103 775.792536,102.984414 775.651729,102.953514 L769.594566,101.624263 C769.140939,101.524714 768.853903,101.076277 768.953451,100.62265 C769.012113,100.35534 769.197186,100.133296 769.449557,100.027441 L771.527983,99.155667 C771.772949,99.0529188 772.035928,99 772.30157,99 Z" id="矩形备份" fill="url(#linearGradient-11)"></path>
                <g id="编组-19" transform="translate(1304.000000, 58.000000)">
                    <g id="编组-3" transform="translate(29.313708, 6.992431)">
                        <mask id="mask-13" fill="white">
                            <use xlink:href="#path-12"></use>
                        </mask>
                        <g id="蒙版"></g>
                        <g mask="url(#mask-13)" fill="#DCF5FF">
                            <g transform="translate(0.000000, 0.321277)">
                                <polygon id="矩形" points="12.1333333 0 14 0 1.86666667 21 -6.6252559e-14 21"></polygon>
                                <polygon id="矩形备份-28" fill-opacity="0.9" points="23.1333333 0 25 0 12.8666667 21 11 21"></polygon>
                                <polygon id="矩形备份-31" fill-opacity="0.8" points="34.1333333 0 36 0 23.8666667 21 22 21"></polygon>
                                <polygon id="矩形备份-32" fill-opacity="0.7" points="45.1333333 0 47 0 34.8666667 21 33 21"></polygon>
                                <polygon id="矩形备份-33" fill-opacity="0.6" points="56.1333333 0 58 0 45.8666667 21 44 21"></polygon>
                                <polygon id="矩形备份-39" fill-opacity="0.5" points="67.1333333 0 69 0 56.8666667 21 55 21"></polygon>
                                <polygon id="矩形备份-40" fill-opacity="0.4" points="78.1333333 0 80 0 67.8666667 21 66 21"></polygon>
                                <polygon id="矩形备份-41" fill-opacity="0.3" points="89.1333333 0 91 0 78.8666667 21 77 21"></polygon>
                                <polygon id="矩形备份-42" fill-opacity="0.2" points="100.133333 0 102 0 89.8666667 21 88 21"></polygon>
                                <polygon id="矩形备份-43" fill-opacity="0.1" points="111.133333 0 113 0 100.866667 21 99 21"></polygon>
                                <polygon id="矩形备份-45" fill-opacity="0.08" points="122.133333 0 124 0 111.866667 21 110 21"></polygon>
                                <polygon id="矩形备份-55" fill-opacity="0.04" points="133.133333 0 135 0 122.866667 21 121 21"></polygon>
                                <polygon id="矩形备份-56" fill-opacity="0.02" points="144.133333 0 146 0 133.866667 21 132 21"></polygon>
                            </g>
                        </g>
                    </g>
                    <g id="矩形" opacity="0.4" transform="translate(11.313708, 11.313708) rotate(45.000000) translate(-11.313708, -11.313708) ">
                        <use fill="black" fill-opacity="1" filter="url(#filter-16)" xlink:href="#path-15"></use>
                        <use stroke="url(#linearGradient-14)" stroke-width="0.2" xlink:href="#path-15"></use>
                    </g>
                    <g id="形状结合">
                        <use fill="#DCF4FF" fill-rule="evenodd" xlink:href="#path-17"></use>
                        <use fill="black" fill-opacity="1" filter="url(#filter-18)" xlink:href="#path-17"></use>
                    </g>
                </g>
                <g id="编组-19" transform="translate(587.656854, 71.496216) scale(-1, 1) translate(-587.656854, -71.496216) translate(499.000000, 58.000000)">
                    <g id="编组-3" transform="translate(29.313708, 6.992431)">
                        <mask id="mask-20" fill="white">
                            <use xlink:href="#path-19"></use>
                        </mask>
                        <g id="蒙版"></g>
                        <g mask="url(#mask-20)" fill="#DCF5FF">
                            <g transform="translate(0.000000, 0.321277)">
                                <polygon id="矩形" points="12.1333333 0 14 0 1.86666667 21 -6.6252559e-14 21"></polygon>
                                <polygon id="矩形备份-28" fill-opacity="0.9" points="23.1333333 0 25 0 12.8666667 21 11 21"></polygon>
                                <polygon id="矩形备份-31" fill-opacity="0.8" points="34.1333333 0 36 0 23.8666667 21 22 21"></polygon>
                                <polygon id="矩形备份-32" fill-opacity="0.7" points="45.1333333 0 47 0 34.8666667 21 33 21"></polygon>
                                <polygon id="矩形备份-33" fill-opacity="0.6" points="56.1333333 0 58 0 45.8666667 21 44 21"></polygon>
                                <polygon id="矩形备份-39" fill-opacity="0.5" points="67.1333333 0 69 0 56.8666667 21 55 21"></polygon>
                                <polygon id="矩形备份-40" fill-opacity="0.4" points="78.1333333 0 80 0 67.8666667 21 66 21"></polygon>
                                <polygon id="矩形备份-41" fill-opacity="0.3" points="89.1333333 0 91 0 78.8666667 21 77 21"></polygon>
                                <polygon id="矩形备份-42" fill-opacity="0.2" points="100.133333 0 102 0 89.8666667 21 88 21"></polygon>
                                <polygon id="矩形备份-43" fill-opacity="0.1" points="111.133333 0 113 0 100.866667 21 99 21"></polygon>
                                <polygon id="矩形备份-45" fill-opacity="0.08" points="122.133333 0 124 0 111.866667 21 110 21"></polygon>
                                <polygon id="矩形备份-55" fill-opacity="0.04" points="133.133333 0 135 0 122.866667 21 121 21"></polygon>
                                <polygon id="矩形备份-56" fill-opacity="0.02" points="144.133333 0 146 0 133.866667 21 132 21"></polygon>
                            </g>
                        </g>
                    </g>
                    <g id="矩形" opacity="0.4" transform="translate(11.313708, 11.313708) rotate(45.000000) translate(-11.313708, -11.313708) ">
                        <use fill="black" fill-opacity="1" filter="url(#filter-22)" xlink:href="#path-21"></use>
                        <use stroke="url(#linearGradient-14)" stroke-width="0.2" xlink:href="#path-21"></use>
                    </g>
                    <g id="形状结合">
                        <use fill="#DCF4FF" fill-rule="evenodd" xlink:href="#path-23"></use>
                        <use fill="black" fill-opacity="1" filter="url(#filter-24)" xlink:href="#path-23"></use>
                    </g>
                </g>
            </g>
        </g>
    </g>
</svg>