<?xml version="1.0" encoding="UTF-8"?>
<svg width="444px" height="549px" viewBox="0 0 444 549" version="1.1" xmlns="http://www.w3.org/2000/svg" xmlns:xlink="http://www.w3.org/1999/xlink">
    <title>编组 11</title>
    <g id="页面-1" stroke="none" stroke-width="1" fill="none" fill-rule="evenodd">
        <g id="编组-11" transform="translate(0.000000, 3.000000)">
            <g id="编组-2" transform="translate(232.973847, 271.773656) rotate(-60.000000) translate(-232.973847, -271.773656) translate(-29.026153, 182.023656)" stroke="#DDE1EA">
                <circle id="椭圆形" stroke-width="2" cx="139" cy="91" r="6"></circle>
                <circle id="椭圆形" stroke-width="2" cx="384.963411" cy="91.0211247" r="6"></circle>
                <path d="M257,5.5 L152,5.5 L123,35.5 L41,35.5 M261.5,11 C264.537566,11 267,8.53756612 267,5.5 C267,2.46243388 264.537566,0 261.5,0 C258.462434,0 256,2.46243388 256,5.5 C256,8.53756612 258.462434,11 261.5,11 Z M35.5,41 C38.5375661,41 41,38.5375661 41,35.5 C41,32.4624339 38.5375661,30 35.5,30 C32.4624339,30 30,32.4624339 30,35.5 C30,38.5375661 32.4624339,41 35.5,41 Z M5.5,14 C8.53756612,14 11,11.5375661 11,8.5 C11,5.46243388 8.53756612,3 5.5,3 C2.46243388,3 0,5.46243388 0,8.5 C0,11.5375661 2.46243388,14 5.5,14 Z M196,168.5 C199.313708,168.5 202,165.813708 202,162.5 C202,159.186292 199.313708,156.5 196,156.5 C192.686292,156.5 190,159.186292 190,162.5 C190,165.813708 192.686292,168.5 196,168.5 Z" id="形状结合" stroke-width="3"></path>
                <path d="M514,16.5 L409,16.5 L380,46.5 L298,46.5 M518.5,22 C521.537566,22 524,19.5375661 524,16.5 C524,13.4624339 521.537566,11 518.5,11 C515.462434,11 513,13.4624339 513,16.5 C513,19.5375661 515.462434,22 518.5,22 Z M292.5,52 C295.537566,52 298,49.5375661 298,46.5 C298,43.4624339 295.537566,41 292.5,41 C289.462434,41 287,43.4624339 287,46.5 C287,49.5375661 289.462434,52 292.5,52 Z M262.5,25 C265.537566,25 268,22.5375661 268,19.5 C268,16.4624339 265.537566,14 262.5,14 C259.462434,14 257,16.4624339 257,19.5 C257,22.5375661 259.462434,25 262.5,25 Z M453,179.5 C456.313708,179.5 459,176.813708 459,173.5 C459,170.186292 456.313708,167.5 453,167.5 C449.686292,167.5 447,170.186292 447,173.5 C447,176.813708 449.686292,179.5 453,179.5 Z" id="形状结合" stroke-width="3" transform="translate(390.500000, 95.250000) scale(-1, -1) translate(-390.500000, -95.250000) "></path>
                <path d="M204,109.5 L28.5,110 M174,117 L83.5,117 M81,120 C82.6568542,120 84,118.656854 84,117 C84,115.343146 82.6568542,114 81,114 C79.3431458,114 78,115.343146 78,117 C78,118.656854 79.3431458,120 81,120 Z M177,120 C178.656854,120 180,118.656854 180,117 C180,115.343146 178.656854,114 177,114 C175.343146,114 174,115.343146 174,117 C174,118.656854 175.343146,120 177,120 Z M191,141.5 C192.656854,141.5 194,140.156854 194,138.5 C194,136.843146 192.656854,135.5 191,135.5 C189.343146,135.5 188,136.843146 188,138.5 C188,140.156854 189.343146,141.5 191,141.5 Z M202,150.5 C203.656854,150.5 205,149.156854 205,147.5 C205,145.843146 203.656854,144.5 202,144.5 C200.343146,144.5 199,145.843146 199,147.5 C199,149.156854 200.343146,150.5 202,150.5 Z M188,138.5 L162,138.5 L147.5,124 L61.5,124 M69,130.5 L142,130.5 L159,147.5 L199,147.5 M204,72 L28.5,71.5 M174,64.5 L83.5,64.5 M81,61.5 C82.6568542,61.5 84,62.8431458 84,64.5 C84,66.1568542 82.6568542,67.5 81,67.5 C79.3431458,67.5 78,66.1568542 78,64.5 C78,62.8431458 79.3431458,61.5 81,61.5 Z M177,61.5 C178.656854,61.5 180,62.8431458 180,64.5 C180,66.1568542 178.656854,67.5 177,67.5 C175.343146,67.5 174,66.1568542 174,64.5 C174,62.8431458 175.343146,61.5 177,61.5 Z M191,40 C192.656854,40 194,41.3431458 194,43 C194,44.6568542 192.656854,46 191,46 C189.343146,46 188,44.6568542 188,43 C188,41.3431458 189.343146,40 191,40 Z M202,31 C203.656854,31 205,32.3431458 205,34 C205,35.6568542 203.656854,37 202,37 C200.343146,37 199,35.6568542 199,34 C199,32.3431458 200.343146,31 202,31 Z M188,43 L162,43 L147.5,57.5 L61.5,57.5 M69,51 L142,51 L158,34 L199,34" id="形状结合"></path>
                <path d="M495,109.5 L319.5,110 M465,117 L374.5,117 M372,120 C373.656854,120 375,118.656854 375,117 C375,115.343146 373.656854,114 372,114 C370.343146,114 369,115.343146 369,117 C369,118.656854 370.343146,120 372,120 Z M468,120 C469.656854,120 471,118.656854 471,117 C471,115.343146 469.656854,114 468,114 C466.343146,114 465,115.343146 465,117 C465,118.656854 466.343146,120 468,120 Z M482,141.5 C483.656854,141.5 485,140.156854 485,138.5 C485,136.843146 483.656854,135.5 482,135.5 C480.343146,135.5 479,136.843146 479,138.5 C479,140.156854 480.343146,141.5 482,141.5 Z M493,150.5 C494.656854,150.5 496,149.156854 496,147.5 C496,145.843146 494.656854,144.5 493,144.5 C491.343146,144.5 490,145.843146 490,147.5 C490,149.156854 491.343146,150.5 493,150.5 Z M479,138.5 L453,138.5 L438.5,124 L352.5,124 M360,130.5 L433,130.5 L450,147.5 L490,147.5 M495,72 L319.5,71.5 M465,64.5 L374.5,64.5 M372,61.5 C373.656854,61.5 375,62.8431458 375,64.5 C375,66.1568542 373.656854,67.5 372,67.5 C370.343146,67.5 369,66.1568542 369,64.5 C369,62.8431458 370.343146,61.5 372,61.5 Z M468,61.5 C469.656854,61.5 471,62.8431458 471,64.5 C471,66.1568542 469.656854,67.5 468,67.5 C466.343146,67.5 465,66.1568542 465,64.5 C465,62.8431458 466.343146,61.5 468,61.5 Z M482,40 C483.656854,40 485,41.3431458 485,43 C485,44.6568542 483.656854,46 482,46 C480.343146,46 479,44.6568542 479,43 C479,41.3431458 480.343146,40 482,40 Z M493,31 C494.656854,31 496,32.3431458 496,34 C496,35.6568542 494.656854,37 493,37 C491.343146,37 490,35.6568542 490,34 C490,32.3431458 491.343146,31 493,31 Z M479,43 L453,43 L438.5,57.5 L352.5,57.5 M360,51 L433,51 L449,34 L490,34" id="形状结合" transform="translate(407.750000, 90.750000) scale(-1, 1) translate(-407.750000, -90.750000) "></path>
            </g>
            <g id="编组-5" transform="translate(167.741649, 205.610069)">
                <path d="M67.1413828,0 L125.287526,33.5384615 L125.287526,100.615385 L67.1413828,134.153846 L8.99523965,100.615385 L8.99523965,33.5384615 L67.1413828,0 Z M9.69819974,34.2837607 L67.1413828,67.0769231 L67.1413828,133.408547 M124.584566,34.2837607 L66.4384227,67.0769231" id="形状结合" stroke="#DEE2EA" stroke-width="1.11888"></path>
                <path d="M67.1413828,27.5760684 L101.383,47.3264957 L101.383,86.8273504 L67.1413828,106.577778 L32.8997652,86.8273504 L32.8997652,47.3264957 L67.1413828,27.5760684 Z M33.5706914,47.6991453 L67.1413828,66.9312255 L67.1413828,105.832479 M100.712074,47.6991453 L66.3953675,67.0769231" id="形状结合" stroke="#DDE1EA" stroke-width="1.8"></path>
                <polygon id="多边形" fill="#DEE2EA" opacity="0.402384" points="66.9403739 66.6376068 67.1413828 134.153846 8.99523965 100.615385 8.99523965 33.5384615"></polygon>
                <polygon id="多边形" fill="#DEE2EA" opacity="0.199134" transform="translate(96.068311, 83.846154) scale(-1, 1) translate(-96.068311, -83.846154) " points="124.940374 66.6376068 125.141383 134.153846 66.9952397 100.615385 66.9952397 33.5384615"></polygon>
            </g>
            <path d="M91.3474319,387.115933 L0.847431864,387.115933 M108.347432,411.615933 C110.004286,411.615933 111.347432,410.272787 111.347432,408.615933 C111.347432,406.959079 110.004286,405.615933 108.347432,405.615933 C106.690578,405.615933 105.347432,406.959079 105.347432,408.615933 C105.347432,410.272787 106.690578,411.615933 108.347432,411.615933 Z M119.347432,420.615933 C121.004286,420.615933 122.347432,419.272787 122.347432,417.615933 C122.347432,415.959079 121.004286,414.615933 119.347432,414.615933 C117.690578,414.615933 116.347432,415.959079 116.347432,417.615933 C116.347432,419.272787 117.690578,420.615933 119.347432,420.615933 Z M105.347432,408.615933 L79.3474319,408.615933 L64.8474319,394.115933 L-21.1525681,394.115933 M-13.6525681,400.615933 L59.3474319,400.615933 L75.3474319,417.615933 L116.347432,417.615933" id="形状结合" stroke="#DDE1EA" transform="translate(50.597432, 403.615933) rotate(-60.000000) translate(-50.597432, -403.615933) "></path>
        </g>
    </g>
</svg>