<?xml version="1.0" encoding="UTF-8"?>
<svg width="265px" height="180px" viewBox="0 0 265 180" version="1.1" xmlns="http://www.w3.org/2000/svg" xmlns:xlink="http://www.w3.org/1999/xlink">
    <title>anchor</title>
    <g id="页面-1" stroke="none" stroke-width="1" fill="none" fill-rule="evenodd">
        <g id="组件图例" transform="translate(-129.000000, -3940.000000)">
            <g id="anchor" transform="translate(129.000000, 3940.000000)">
                <rect id="选择背景色" fill="#E5F6FF" x="64" y="24" width="3" height="130"></rect>
                <rect id="选择背景色" fill="#40A9FF" x="64" y="58" width="3" height="28"></rect>
                <text font-size="12" fill="#40A9FF">
                    <tspan x="106" y="42">Menu</tspan>
                </text>
                <path d="M86.1818182,31.6363636 C87.5876339,31.6363636 88.7272727,32.7760025 88.7272727,34.1818182 L88.7272727,36.7272727 L86.1818182,36.7272727 C84.7760025,36.7272727 83.6363636,35.5876339 83.6363636,34.1818182 C83.6363636,32.7760025 84.7760025,31.6363636 86.1818182,31.6363636 Z M93.8181818,31.6363636 C95.2239975,31.6363636 96.3636364,32.7760025 96.3636364,34.1818182 C96.3636364,35.5876339 95.2239975,36.7272727 93.8181818,36.7272727 L91.2727273,36.7272727 L91.2727273,34.1818182 C91.2727273,32.7760025 92.4123661,31.6363636 93.8181818,31.6363636 Z M86.1818182,39.2727273 L88.7272727,39.2727273 L88.7272727,41.8181818 C88.7272727,43.2239975 87.5876339,44.3636364 86.1818182,44.3636364 C84.7760025,44.3636364 83.6363636,43.2239975 83.6363636,41.8181818 C83.6363636,40.4123661 84.7760025,39.2727273 86.1818182,39.2727273 Z M91.2727273,39.2727273 L93.8181818,39.2727273 C95.2239975,39.2727273 96.3636364,40.4123661 96.3636364,41.8181818 C96.3636364,43.2239975 95.2239975,44.3636364 93.8181818,44.3636364 C92.4123661,44.3636364 91.2727273,43.2239975 91.2727273,41.8181818 L91.2727273,39.2727273 Z" id="形状结合" stroke="#3699FF" fill-opacity="0.2" fill="#3699FF" stroke-linecap="round" stroke-linejoin="round"></path>
                <text font-size="12" fill="#40A9FF">
                    <tspan x="106" y="76">Calendar</tspan>
                </text>
                <path d="M84.9090909,66.9090909 L95.0909091,66.9090909 C95.793817,66.9090909 96.3636364,67.4789103 96.3636364,68.1818182 L96.3636364,77.0909091 C96.3636364,77.793817 95.793817,78.3636364 95.0909091,78.3636364 L84.9090909,78.3636364 C84.206183,78.3636364 83.6363636,77.793817 83.6363636,77.0909091 L83.6363636,68.1818182 C83.6363636,67.4789103 84.206183,66.9090909 84.9090909,66.9090909 Z M86.8181818,65.6363636 L86.8181818,68.1818182 M93.1818182,65.6363636 L93.1818182,68.1818182 M83.6363636,70.0909091 L96.3636364,70.0909091 M85.6363636,66.9090909 L94.3636364,66.9090909 C95.4682059,66.9090909 96.3636364,67.8045214 96.3636364,68.9090909 L96.3636364,70.0909091 L96.3636364,70.0909091 L83.6363636,70.0909091 L83.6363636,68.9090909 C83.6363636,67.8045214 84.5317941,66.9090909 85.6363636,66.9090909 Z" id="形状结合" stroke="#3699FF" fill-opacity="0.2" fill="#3699FF" stroke-linecap="round" stroke-linejoin="round"></path>
                <text font-size="12" fill="#40A9FF">
                    <tspan x="106" y="110">Camera</tspan>
                </text>
                <path d="M84.9090909,102.181818 L86.1818182,102.181818 L87.4545455,100.272727 L92.5454545,100.272727 L93.8181818,102.181818 L95.0909091,102.181818 C95.793817,102.181818 96.3636364,102.751638 96.3636364,103.454545 L96.3636364,110.454545 C96.3636364,111.157453 95.793817,111.727273 95.0909091,111.727273 L84.9090909,111.727273 C84.206183,111.727273 83.6363636,111.157453 83.6363636,110.454545 L83.6363636,103.454545 C83.6363636,102.751638 84.206183,102.181818 84.9090909,102.181818 Z M90,109.181818 C91.4058157,109.181818 92.5454545,108.042179 92.5454545,106.636364 C92.5454545,105.230548 91.4058157,104.090909 90,104.090909 C88.5941843,104.090909 87.4545455,105.230548 87.4545455,106.636364 C87.4545455,108.042179 88.5941843,109.181818 90,109.181818 Z" id="形状结合" stroke="#3699FF" fill-opacity="0.2" fill="#3699FF" stroke-linecap="round" stroke-linejoin="round"></path>
                <text font-size="12" fill="#40A9FF">
                    <tspan x="106" y="144">Computer</tspan>
                </text>
                <path d="M89.0454545,143.818182 L90.9545455,143.818182 L90.9545455,146.363636 L89.0454545,146.363636 L89.0454545,143.818182 Z M84.9090909,134.272727 L95.0909091,134.272727 C95.793817,134.272727 96.3636364,134.923949 96.3636364,135.727273 L96.3636364,142.363636 C96.3636364,143.16696 95.793817,143.818182 95.0909091,143.818182 L84.9090909,143.818182 C84.206183,143.818182 83.6363636,143.16696 83.6363636,142.363636 L83.6363636,135.727273 C83.6363636,134.923949 84.206183,134.272727 84.9090909,134.272727 Z M92.5454545,146.363636 L87.4545455,146.363636" id="形状结合" stroke="#3699FF" fill-opacity="0.2" fill="#3699FF" stroke-linecap="round" stroke-linejoin="round"></path>
            </g>
        </g>
    </g>
</svg>