<?xml version="1.0" encoding="UTF-8"?>
<svg width="245px" height="144px" viewBox="0 0 245 144" version="1.1" xmlns="http://www.w3.org/2000/svg" xmlns:xlink="http://www.w3.org/1999/xlink">
    <title>checkbox</title>
    <g id="页面-1" stroke="none" stroke-width="1" fill="none" fill-rule="evenodd">
        <g id="组件图例" transform="translate(-837.000000, -832.000000)">
            <g id="checkbox" transform="translate(837.000000, 832.000000)">
                <rect id="选择背景色" fill="#40A9FF" x="53" y="28" width="18" height="18" rx="4"></rect>
                <path d="M65.6514932,33.4060419 C65.8791117,33.1382553 66.280717,33.1056928 66.5485035,33.3333113 C66.7956911,33.5434208 66.8424512,33.9017792 66.6691542,34.1662894 L66.6212341,34.2303217 L61.2121432,40.5939581 C60.9987356,40.8450259 60.6332666,40.8887528 60.3684553,40.7074629 L60.3044957,40.6574423 L57.4408594,38.1119877 C57.1781794,37.8784945 57.154519,37.4762666 57.3880123,37.2135866 C57.6035445,36.9711129 57.9628506,36.9323006 58.223458,37.1114131 L58.2864134,37.1607395 L60.6636364,39.2737273 L65.6514932,33.4060419 Z" id="路径" fill="#FFFFFF"></path>
                <rect id="选择背景色" fill="#40A9FF" x="53" y="98" width="18" height="18" rx="4"></rect>
                <path d="M66.4545455,106.363636 C66.8059994,106.363636 67.0909091,106.648546 67.0909091,107 C67.0909091,107.32635 66.8452472,107.595323 66.5287589,107.632082 L66.4545455,107.636364 L57.5454545,107.636364 C57.1940006,107.636364 56.9090909,107.351454 56.9090909,107 C56.9090909,106.67365 57.1547528,106.404677 57.4712411,106.367918 L57.5454545,106.363636 L66.4545455,106.363636 Z" id="路径" fill="#FFFFFF"></path>
                <text id="输入文本" font-size="14" fill="#40A9FF">
                    <tspan x="79" y="42">Checkbox</tspan>
                </text>
                <text id="输入文本" font-size="14" fill="#40A9FF">
                    <tspan x="79" y="112">Checkbox</tspan>
                </text>
                <text id="输入文本" font-size="14" fill="#40A9FF">
                    <tspan x="79" y="76">Checkbox</tspan>
                </text>
                <rect id="选择背景色" stroke="#40A9FF" fill="#FFFFFF" x="53.5" y="62.5" width="17" height="17" rx="4"></rect>
            </g>
        </g>
    </g>
</svg>