<?xml version="1.0" encoding="UTF-8"?>
<svg width="265px" height="180px" viewBox="0 0 265 180" version="1.1" xmlns="http://www.w3.org/2000/svg" xmlns:xlink="http://www.w3.org/1999/xlink">
    <title>datetimepicker</title>
    <defs>
        <rect id="path-1" x="0" y="0" width="265" height="180" rx="2"></rect>
    </defs>
    <g id="页面-1" stroke="none" stroke-width="1" fill="none" fill-rule="evenodd">
        <g id="组件图例" transform="translate(-129.000000, -1124.000000)">
            <g id="datetimepicker" transform="translate(129.000000, 1124.000000)">
               
                <rect id="矩形" stroke="#C5E5FF" fill="#FFFFFF" x="18.5" y="55.5" width="228" height="228" rx="3.21403509"></rect>
                <rect id="矩形" stroke="#40A9FF" stroke-width="2" fill="#FFFFFF" x="19" y="20" width="227" height="26" rx="4"></rect>
                <text id="输入文本" font-size="14" fill="#40A9FF">
                    <tspan x="53" y="38">2022-03-22  12:00:00</tspan>
                </text>
                <path d="M37,39.3636364 C40.5145393,39.3636364 43.3636364,36.5145393 43.3636364,33 C43.3636364,29.4854607 40.5145393,26.6363636 37,26.6363636 C33.4854607,26.6363636 30.6363636,29.4854607 30.6363636,33 C30.6363636,36.5145393 33.4854607,39.3636364 37,39.3636364 Z M37,29.1818182 L37,33 L39.5454545,34.2727273" id="椭圆形-2" stroke="#40A9FF" stroke-width="1.5" stroke-linecap="round" stroke-linejoin="round" mask="url(#mask-2)"></path>
                <text id="输入文本" font-size="10.445614" fill="#40A9FF">
                    <tspan x="186.774075" y="171.315789">1</tspan>
                </text>
                <text id="输入文本" font-size="10.445614" fill="#40A9FF">
                    <tspan x="213.734737" y="171.315789">2</tspan>
                </text>
                <text id="输入文本" opacity="0.2" font-size="10.445614" fill="#40A9FF">
                    <tspan x="156.517584" y="171.315789">31</tspan>
                </text>
                <text id="输入文本" opacity="0.2" font-size="10.445614" fill="#40A9FF">
                    <tspan x="127.355439" y="171.315789">30</tspan>
                </text>
                <text id="输入文本" opacity="0.2" font-size="10.445614" fill="#40A9FF">
                    <tspan x="99.2326316" y="171.315789">29</tspan>
                </text>
                <text id="输入文本" opacity="0.2" font-size="10.445614" fill="#40A9FF">
                    <tspan x="71.1098246" y="171.315789">28</tspan>
                </text>
                <text id="输入文本" opacity="0.2" font-size="10.445614" fill="#40A9FF">
                    <tspan x="43.2638263" y="171.315789">27</tspan>
                </text>
                <text id="输入文本" font-size="10.445614" fill="#40A9FF">
                    <tspan x="211.645614" y="147.210526">六</tspan>
                </text>
                <text id="输入文本" font-size="10.445614" fill="#40A9FF">
                    <tspan x="183.522807" y="147.210526">五</tspan>
                </text>
                <text id="输入文本" font-size="10.445614" fill="#40A9FF">
                    <tspan x="155.4" y="147.210526">四</tspan>
                </text>
                <text id="输入文本" font-size="10.445614" fill="#40A9FF">
                    <tspan x="127.277193" y="147.210526">三</tspan>
                </text>
                <text id="输入文本" font-size="10.445614" fill="#40A9FF">
                    <tspan x="99.154386" y="147.210526">二</tspan>
                </text>
                <text id="输入文本" font-size="10.445614" fill="#40A9FF">
                    <tspan x="71.0315789" y="147.210526">一</tspan>
                </text>
                <text id="输入文本" font-size="11.2491228" line-spacing="17.677193" fill="#40A9FF">
                    <tspan x="106.118776" y="118.239766">二月 2020</tspan>
                </text>
                <path d="M51.7290296,111.149763 C51.928714,110.950079 52.2524663,110.950079 52.4521506,111.149763 C52.6364746,111.334087 52.6506534,111.624126 52.4946869,111.824714 L52.4521506,111.872884 L49.2348469,115.09059 L52.4521506,118.308296 C52.6364746,118.49262 52.6506534,118.782659 52.4946869,118.983247 L52.4521506,119.031417 C52.2678266,119.215741 51.9777879,119.22992 51.7772001,119.073953 L51.7290296,119.031417 L48.1497633,115.452151 C47.9654392,115.267827 47.9512605,114.977788 48.107227,114.7772 L48.1497633,114.72903 L51.7290296,111.149763 Z" id="路径" fill="#40A9FF" mask="url(#mask-2)"></path>
                <path d="M212.869062,111.149763 C213.053386,110.965439 213.343424,110.95126 213.544012,111.107227 L213.592183,111.149763 L217.171449,114.72903 C217.355773,114.913354 217.369952,115.203392 217.213985,115.40398 L217.171449,115.452151 L213.592183,119.031417 C213.392498,119.231101 213.068746,119.231101 212.869062,119.031417 C212.684737,118.847093 212.670559,118.557054 212.826525,118.356466 L212.869062,118.308296 L216.086365,115.09059 L212.869062,111.872884 C212.684737,111.68856 212.670559,111.398522 212.826525,111.197934 L212.869062,111.149763 Z" id="路径" fill="#40A9FF" mask="url(#mask-2)"></path>
                <path d="M142.5,69.5 L142.5,92.5 L36,92.5 C35.0335017,92.5 34.1585017,92.1082492 33.5251263,91.4748737 C32.8917508,90.8414983 32.5,89.9664983 32.5,89 L32.5,89 L32.5,73 C32.5,72.0335017 32.8917508,71.1585017 33.5251263,70.5251263 C34.1585017,69.8917508 35.0335017,69.5 36,69.5 L36,69.5 L142.5,69.5 Z" id="选择背景色" stroke="#C5E5FF" fill="#FFFFFF" mask="url(#mask-2)"></path>
                <text id="输入文本" font-size="12" fill="#40A9FF">
                    <tspan x="61" y="85.5">2022-03-22</tspan>
                </text>
                <path d="M41.6363636,76.6363636 L50.3636364,76.6363636 C50.9661288,76.6363636 51.4545455,77.1247803 51.4545455,77.7272727 L51.4545455,85.3636364 C51.4545455,85.9661288 50.9661288,86.4545455 50.3636364,86.4545455 L41.6363636,86.4545455 C41.0338712,86.4545455 40.5454545,85.9661288 40.5454545,85.3636364 L40.5454545,77.7272727 C40.5454545,77.1247803 41.0338712,76.6363636 41.6363636,76.6363636 Z M43.2727273,75.5454545 L43.2727273,77.7272727 M48.7272727,75.5454545 L48.7272727,77.7272727 M40.5454545,79.3636364 L51.4545455,79.3636364 M41.5454545,76.6363636 L50.4545455,76.6363636 C51.0068302,76.6363636 51.4545455,77.0840789 51.4545455,77.6363636 L51.4545455,79.3636364 L51.4545455,79.3636364 L40.5454545,79.3636364 L40.5454545,77.6363636 C40.5454545,77.0840789 40.9931698,76.6363636 41.5454545,76.6363636 Z" id="形状结合" stroke="#40A9FF" stroke-linecap="round" stroke-linejoin="round" mask="url(#mask-2)"></path>
                <path d="M229,69.5 C229.966498,69.5 230.841498,69.8917508 231.474874,70.5251263 C232.108249,71.1585017 232.5,72.0335017 232.5,73 L232.5,73 L232.5,89 C232.5,89.9664983 232.108249,90.8414983 231.474874,91.4748737 C230.841498,92.1082492 229.966498,92.5 229,92.5 L229,92.5 L142.5,92.5 L142.5,69.5 Z" id="选择背景色" stroke="#C5E5FF" fill="#FFFFFF" mask="url(#mask-2)"></path>
                <text id="输入文本" font-size="12" fill="#40A9FF">
                    <tspan x="171" y="85.5">12:00:00</tspan>
                </text>
                <path d="M151.636364,76.6363636 L160.363636,76.6363636 C160.966129,76.6363636 161.454545,77.1247803 161.454545,77.7272727 L161.454545,85.3636364 C161.454545,85.9661288 160.966129,86.4545455 160.363636,86.4545455 L151.636364,86.4545455 C151.033871,86.4545455 150.545455,85.9661288 150.545455,85.3636364 L150.545455,77.7272727 C150.545455,77.1247803 151.033871,76.6363636 151.636364,76.6363636 Z M153.272727,75.5454545 L153.272727,77.7272727 M158.727273,75.5454545 L158.727273,77.7272727 M150.545455,79.3636364 L161.454545,79.3636364 M151.545455,76.6363636 L160.454545,76.6363636 C161.00683,76.6363636 161.454545,77.0840789 161.454545,77.6363636 L161.454545,79.3636364 L161.454545,79.3636364 L150.545455,79.3636364 L150.545455,77.6363636 C150.545455,77.0840789 150.99317,76.6363636 151.545455,76.6363636 Z" id="形状结合" stroke="#40A9FF" stroke-linecap="round" stroke-linejoin="round" mask="url(#mask-2)"></path>
            </g>
        </g>
    </g>
</svg>