<?xml version="1.0" encoding="UTF-8"?>
<svg width="245px" height="144px" viewBox="0 0 245 144" version="1.1" xmlns="http://www.w3.org/2000/svg" xmlns:xlink="http://www.w3.org/1999/xlink">
    <title>icon</title>
    <g id="页面-1" stroke="none" stroke-width="1" fill="none" fill-rule="evenodd">
        <g id="组件图例" transform="translate(-139.000000, -522.000000)">
            <g id="icon" transform="translate(139.000000, 522.000000)">
                <path d="M154.846367,72.9974718 C156.976247,69.3092074 155.666569,64.8245532 154.69291,64.2636406 C154.15581,63.9540804 152.539217,64.1551623 150.840605,65.0097601 C149.806092,62.4512582 147.813794,60.75 146.998884,60.75 C146.183973,60.75 144.189029,62.4512582 143.15187,65.0097601 C141.453258,64.1551623 139.836666,63.9540804 139.299566,64.2636406 C138.325906,64.827199 137.018874,69.3092074 139.146108,72.9974718 C140.836783,75.9263876 143.879469,77.8816439 145.871767,78.1012465 L145.871767,82.1255292 C145.871767,82.7472954 146.374471,83.25 146.996238,83.25 C147.618004,83.25 148.120709,82.7472954 148.120709,82.1255292 L148.120709,78.1012465 C150.113006,77.8842897 153.155692,75.9263876 154.846367,72.9974718 Z" id="形状" fill="#3699FF"></path>
                <path d="M138.876235,77.439793 C140.749471,77.7202493 142.453376,78.5801388 143.773637,79.8501294 C143.962371,80.0318086 144.139347,80.224071 144.309267,80.422997 L144.559443,80.7258937 L144.532985,80.7444144 C144.644109,80.8740593 144.728775,81.0275165 144.742004,81.2100776 C144.781692,81.6757408 144.437736,82.085842 143.974718,82.1255292 C143.625471,82.1546331 143.307973,81.9667803 143.154516,81.6757408 C142.979892,81.4640757 142.799977,81.2603481 142.601541,81.0698495 C141.649048,80.1534358 140.449467,79.5037901 139.128031,79.2083774 L138.72807,79.130468 L138.730716,79.1119473 C138.349718,79.059031 138.037512,78.7653457 138.003117,78.3658278 C137.96343,77.9001646 138.307385,77.4900635 138.770403,77.4503763 L138.821996,77.4526914 L138.821996,77.4526914 L138.87359,77.4609595 L138.876235,77.439793 Z M155.11624,77.4371472 L155.118886,77.4583137 L155.222073,77.4477305 L155.222073,77.4477305 C155.687736,77.4900635 156.029046,77.9001646 155.989359,78.3605362 C155.956947,78.7101144 155.715889,78.9786645 155.400892,79.0757896 L155.26176,79.1066557 L155.264406,79.1251764 C153.785396,79.3685913 152.438677,80.053857 151.390934,81.0645579 C151.195144,81.2524106 151.012583,81.4587841 150.837959,81.6704492 C150.684502,81.9641345 150.367004,82.1519873 150.017757,82.1202375 C149.552094,82.0779045 149.210784,81.6678034 149.250471,81.204786 C149.262377,81.0698495 149.31149,80.9497957 149.382183,80.8435084 L149.45949,80.7417686 L149.433032,80.7232479 C149.676447,80.4163335 149.935737,80.1200024 150.218839,79.8474835 C151.437541,78.6751845 152.983135,77.8545752 154.687058,77.5125969 L155.11624,77.4371472 Z" id="形状" fill="#3699FF" opacity="0.478291103"></path>
                <path d="M49.6553431,72.7516514 C49.986714,72.7516514 50.2553431,73.0202805 50.2553431,73.3516514 L50.2553431,78.0016514 C50.2553431,80.9011463 47.9048381,83.2516514 45.0053431,83.2516514 C42.1058482,83.2516514 39.7553431,80.9011463 39.7553431,78.0016514 C39.7553431,75.1021565 42.1058482,72.7516514 45.0053431,72.7516514 L49.6553431,72.7516514 Z M45.0053431,60.7516514 C47.8081882,60.7516514 50.0980328,62.9480678 50.2475748,65.7135986 L50.2553431,66.0016514 L50.2553431,70.6516514 C50.2553431,70.9416009 50.0496739,71.1835138 49.7762641,71.2394615 L49.6553431,71.2516514 L45.0053431,71.2516514 C42.1058482,71.2516514 39.7553431,68.9011463 39.7553431,66.0016514 C39.7553431,63.1021565 42.1058482,60.7516514 45.0053431,60.7516514 Z M57.0053431,60.7516514 C59.9048381,60.7516514 62.2553431,63.1021565 62.2553431,66.0016514 C62.2553431,68.9011463 59.9048381,71.2516514 57.0053431,71.2516514 L52.3553431,71.2516514 C52.0239723,71.2516514 51.7553431,70.9830222 51.7553431,70.6516514 L51.7553431,66.0016514 C51.7553431,63.1021565 54.1058482,60.7516514 57.0053431,60.7516514 Z" id="形状" fill="#3699FF"></path>
                <path d="M57.0053431,72.7516514 C59.9048381,72.7516514 62.2553431,75.1021565 62.2553431,78.0016514 C62.2553431,80.9011463 59.9048381,83.2516514 57.0053431,83.2516514 L52.3553431,83.2516514 C52.0239723,83.2516514 51.7553431,82.9830222 51.7553431,82.6516514 L51.7553431,78.0016514 L51.7553431,78.0016514 C51.7553431,75.1021565 54.1058482,72.7516514 57.0053431,72.7516514 Z" id="矩形" fill="#3699FF" opacity="0.478291103" transform="translate(57.005343, 78.001651) scale(1, -1) translate(-57.005343, -78.001651) "></path>
                <path d="M90.2727273,65.4545455 L92.4545455,65.4545455 L94.6363636,62.1818182 L103.363636,62.1818182 L105.545455,65.4545455 L107.727273,65.4545455 C108.932258,65.4545455 109.909091,66.4313787 109.909091,67.6363636 L109.909091,79.6363636 C109.909091,80.8413485 108.932258,81.8181818 107.727273,81.8181818 L90.2727273,81.8181818 C89.0677424,81.8181818 88.0909091,80.8413485 88.0909091,79.6363636 L88.0909091,67.6363636 C88.0909091,66.4313787 89.0677424,65.4545455 90.2727273,65.4545455 Z M99,77.4545455 C101.40997,77.4545455 103.363636,75.5008789 103.363636,73.0909091 C103.363636,70.6809393 101.40997,68.7272727 99,68.7272727 C96.5900302,68.7272727 94.6363636,70.6809393 94.6363636,73.0909091 C94.6363636,75.5008789 96.5900302,77.4545455 99,77.4545455 Z" id="形状结合" stroke="#3699FF" stroke-width="2" stroke-linecap="round" stroke-linejoin="round"></path>
                <path d="M195,81.8181818 C194.850591,81.8181818 194.701182,81.7865471 194.562,81.7232778 L194.387727,81.6440261 C194.322136,81.6140887 194.258455,81.579531 194.198045,81.5409187 C189.307818,78.4145077 184.090909,74.582139 184.090909,68.6475967 C184.109227,65.0805161 186.926864,62.1818182 190.371909,62.1818182 C192.153,62.1818182 193.826636,62.9586357 195.008682,64.2989369 C195.462091,63.8068315 196.010727,63.3688492 196.612364,63.0244037 C197.575182,62.4731778 198.618045,62.1818182 199.628091,62.1818182 C203.073136,62.1818182 205.890773,65.0805161 205.909091,68.6435422 C205.909091,74.582139 200.692182,78.4145077 195.802273,81.5407773 C195.741545,81.5795781 195.677864,81.614183 195.612727,81.6438847 L195.438,81.7233721 C195.298818,81.7865471 195.149409,81.8181818 195,81.8181818 Z" id="形状" stroke="#3699FF" stroke-width="2.18181818" fill-opacity="0.2" fill="#3699FF" stroke-linecap="round" stroke-linejoin="round"></path>
            </g>
        </g>
    </g>
</svg>