<?xml version="1.0" encoding="UTF-8"?>
<svg width="265px" height="180px" viewBox="0 0 265 180" version="1.1" xmlns="http://www.w3.org/2000/svg" xmlns:xlink="http://www.w3.org/1999/xlink">
    <title>loading</title>
    <g id="页面-1" stroke="none" stroke-width="1" fill="none" fill-rule="evenodd">
        <g id="组件图例" transform="translate(-827.000000, -3010.000000)">
            <g id="loading" transform="translate(827.000000, 3010.000000)">
                <text font-size="16" fill="#40A9FF">
                    <tspan x="114" y="97">Loading</tspan>
                </text>
                <path d="M86,74.3333333 C77.3475389,74.3333333 70.3333333,81.3475389 70.3333333,90 C70.3333333,98.6524611 77.3475389,105.666667 86,105.666667 C94.6524611,105.666667 101.666667,98.6524611 101.666667,90 C101.666667,81.3475389 94.6524611,74.3333333 86,74.3333333 Z M86,76.3333333 C93.5478916,76.3333333 99.6666667,82.4521084 99.6666667,90 C99.6666667,97.5478916 93.5478916,103.666667 86,103.666667 C78.4521084,103.666667 72.3333333,97.5478916 72.3333333,90 C72.3333333,82.4521084 78.4521084,76.3333333 86,76.3333333 Z" id="椭圆形" fill="#40A9FF" fill-rule="nonzero" opacity="0.200000003"></path>
                <path d="M100.666667,89 C101.218951,89 101.666667,89.4477153 101.666667,90 C101.666667,98.6524611 94.6524611,105.666667 86,105.666667 C85.4477153,105.666667 85,105.218951 85,104.666667 C85,104.114382 85.4477153,103.666667 86,103.666667 C93.5478916,103.666667 99.6666667,97.5478916 99.6666667,90 C99.6666667,89.4477153 100.114382,89 100.666667,89 Z" id="路径" fill="#40A9FF" fill-rule="nonzero"></path>
            </g>
        </g>
    </g>
</svg>