<?xml version="1.0" encoding="UTF-8"?>
<svg width="245px" height="164px" viewBox="0 0 245 164" version="1.1" xmlns="http://www.w3.org/2000/svg" xmlns:xlink="http://www.w3.org/1999/xlink">
    <title>menu</title>
    <defs>
        <rect id="path-1" x="0" y="0" width="245" height="164" rx="2"></rect>
    </defs>
    <g id="页面-1" stroke="none" stroke-width="1" fill="none" fill-rule="evenodd">
        <g id="组件图例" transform="translate(-488.000000, -3638.000000)">
            <g id="menu" transform="translate(488.000000, 3638.000000)">
                <rect id="选择背景色" stroke="#C5E5FF" fill-opacity="0.49653252" fill="#E5F6FF" x="28.5" y="24.5" width="219" height="162" rx="2"></rect>
                <text font-size="12" fill="#40A9FF">
                    <tspan x="63" y="48">Menu</tspan>
                </text>
                <path d="M43.1818182,37.6363636 C44.5876339,37.6363636 45.7272727,38.7760025 45.7272727,40.1818182 L45.7272727,42.7272727 L43.1818182,42.7272727 C41.7760025,42.7272727 40.6363636,41.5876339 40.6363636,40.1818182 C40.6363636,38.7760025 41.7760025,37.6363636 43.1818182,37.6363636 Z M50.8181818,37.6363636 C52.2239975,37.6363636 53.3636364,38.7760025 53.3636364,40.1818182 C53.3636364,41.5876339 52.2239975,42.7272727 50.8181818,42.7272727 L48.2727273,42.7272727 L48.2727273,40.1818182 C48.2727273,38.7760025 49.4123661,37.6363636 50.8181818,37.6363636 Z M43.1818182,45.2727273 L45.7272727,45.2727273 L45.7272727,47.8181818 C45.7272727,49.2239975 44.5876339,50.3636364 43.1818182,50.3636364 C41.7760025,50.3636364 40.6363636,49.2239975 40.6363636,47.8181818 C40.6363636,46.4123661 41.7760025,45.2727273 43.1818182,45.2727273 Z M48.2727273,45.2727273 L50.8181818,45.2727273 C52.2239975,45.2727273 53.3636364,46.4123661 53.3636364,47.8181818 C53.3636364,49.2239975 52.2239975,50.3636364 50.8181818,50.3636364 C49.4123661,50.3636364 48.2727273,49.2239975 48.2727273,47.8181818 L48.2727273,45.2727273 Z" id="形状结合" stroke="#3699FF" fill-opacity="0.2" fill="#3699FF" stroke-linecap="round" stroke-linejoin="round"></path>
                <rect id="选择背景色" fill="#E5F6FF" x="29" y="64" width="216" height="28"></rect>
                <text font-size="12" fill="#40A9FF">
                    <tspan x="63" y="82">Calendar</tspan>
                </text>
                <path d="M41.9090909,72.9090909 L52.0909091,72.9090909 C52.793817,72.9090909 53.3636364,73.4789103 53.3636364,74.1818182 L53.3636364,83.0909091 C53.3636364,83.793817 52.793817,84.3636364 52.0909091,84.3636364 L41.9090909,84.3636364 C41.206183,84.3636364 40.6363636,83.793817 40.6363636,83.0909091 L40.6363636,74.1818182 C40.6363636,73.4789103 41.206183,72.9090909 41.9090909,72.9090909 Z M43.8181818,71.6363636 L43.8181818,74.1818182 M50.1818182,71.6363636 L50.1818182,74.1818182 M40.6363636,76.0909091 L53.3636364,76.0909091 M42.6363636,72.9090909 L51.3636364,72.9090909 C52.4682059,72.9090909 53.3636364,73.8045214 53.3636364,74.9090909 L53.3636364,76.0909091 L53.3636364,76.0909091 L40.6363636,76.0909091 L40.6363636,74.9090909 C40.6363636,73.8045214 41.5317941,72.9090909 42.6363636,72.9090909 Z" id="形状结合" stroke="#3699FF" fill-opacity="0.2" fill="#3699FF" stroke-linecap="round" stroke-linejoin="round"></path>
                <rect id="选择背景色" x="28" y="98" width="180" height="28" rx="4"></rect>
                <text font-size="12" fill="#40A9FF">
                    <tspan x="63" y="116">Camera</tspan>
                </text>
                <path d="M41.9090909,108.181818 L43.1818182,108.181818 L44.4545455,106.272727 L49.5454545,106.272727 L50.8181818,108.181818 L52.0909091,108.181818 C52.793817,108.181818 53.3636364,108.751638 53.3636364,109.454545 L53.3636364,116.454545 C53.3636364,117.157453 52.793817,117.727273 52.0909091,117.727273 L41.9090909,117.727273 C41.206183,117.727273 40.6363636,117.157453 40.6363636,116.454545 L40.6363636,109.454545 C40.6363636,108.751638 41.206183,108.181818 41.9090909,108.181818 Z M47,115.181818 C48.4058157,115.181818 49.5454545,114.042179 49.5454545,112.636364 C49.5454545,111.230548 48.4058157,110.090909 47,110.090909 C45.5941843,110.090909 44.4545455,111.230548 44.4545455,112.636364 C44.4545455,114.042179 45.5941843,115.181818 47,115.181818 Z" id="形状结合" stroke="#3699FF" fill-opacity="0.2" fill="#3699FF" stroke-linecap="round" stroke-linejoin="round"></path>
                <rect id="选择背景色" x="28" y="132" width="180" height="28" rx="4"></rect>
                <text font-size="12" fill="#40A9FF">
                    <tspan x="63" y="150">Computer</tspan>
                </text>
                <path d="M46.0454545,149.818182 L47.9545455,149.818182 L47.9545455,152.363636 L46.0454545,152.363636 L46.0454545,149.818182 Z M41.9090909,140.272727 L52.0909091,140.272727 C52.793817,140.272727 53.3636364,140.923949 53.3636364,141.727273 L53.3636364,148.363636 C53.3636364,149.16696 52.793817,149.818182 52.0909091,149.818182 L41.9090909,149.818182 C41.206183,149.818182 40.6363636,149.16696 40.6363636,148.363636 L40.6363636,141.727273 C40.6363636,140.923949 41.206183,140.272727 41.9090909,140.272727 Z M49.5454545,152.363636 L44.4545455,152.363636" id="形状结合" stroke="#3699FF" fill-opacity="0.2" fill="#3699FF" stroke-linecap="round" stroke-linejoin="round"></path>
            </g>
        </g>
    </g>
</svg>