<?xml version="1.0" encoding="UTF-8"?>
<svg width="265px" height="180px" viewBox="0 0 265 180" version="1.1" xmlns="http://www.w3.org/2000/svg" xmlns:xlink="http://www.w3.org/1999/xlink">
    <title>message</title>
    <g id="页面-1" stroke="none" stroke-width="1" fill="none" fill-rule="evenodd">
        <g id="组件图例" transform="translate(-1525.000000, -3010.000000)">
            <g id="message" transform="translate(1525.000000, 3010.000000)">
                <rect id="选择背景色" fill="#E5F6FF" x="30" y="72" width="205" height="36" rx="4"></rect>
                <text font-size="12" fill="#40A9FF">
                    <tspan x="61" y="94">Notification Message</tspan>
                </text>
                <path d="M49,83 C52.8659932,83 56,86.1340068 56,90 C56,93.8659932 52.8659932,97 49,97 C45.1340068,97 42,93.8659932 42,90 C42,86.1340068 45.1340068,83 49,83 Z M48.9993873,88.4292806 C48.7846099,88.4292806 48.60598,88.5840464 48.568936,88.7881395 L48.5618873,88.8667806 L48.5618873,93.2417806 C48.5618873,93.4834052 48.7577627,93.6792806 48.9993873,93.6792806 C49.2141647,93.6792806 49.3927946,93.5245149 49.4298386,93.3204218 L49.4368873,93.2417806 L49.4368873,88.8667806 C49.4368873,88.6251561 49.2410119,88.4292806 48.9993873,88.4292806 Z M49.0003812,86.3282374 C48.7104317,86.3282374 48.4753812,86.5632879 48.4753812,86.8532374 C48.4753812,87.1431869 48.7104317,87.3782374 49.0003812,87.3782374 C49.2903307,87.3782374 49.5253812,87.1431869 49.5253812,86.8532374 C49.5253812,86.5632879 49.2903307,86.3282374 49.0003812,86.3282374 Z" id="形状" fill="#40A9FF"></path>
            </g>
        </g>
    </g>
</svg>