<?xml version="1.0" encoding="UTF-8"?>
<svg width="265px" height="180px" viewBox="0 0 265 180" version="1.1" xmlns="http://www.w3.org/2000/svg" xmlns:xlink="http://www.w3.org/1999/xlink">
    <title>notification</title>
    <g id="页面-1" stroke="none" stroke-width="1" fill="none" fill-rule="evenodd">
        <g id="组件图例" transform="translate(-129.000000, -3320.000000)">
            <g id="notification" transform="translate(129.000000, 3320.000000)">
                <rect id="选择背景色" stroke="#C5E5FF" fill-opacity="0.49653252" fill="#E5F6FF" x="-11" y="32" width="244" height="163" rx="2"></rect>
                <path d="M225,32 C229.418278,32 233,35.581722 233,40 L233,187 C233,191.418278 229.418278,195 225,195 L-3,195 C-7.418278,195 -11,191.418278 -11,187 L-11,40 C-11,35.581722 -7.418278,32 -3,32 L225,32 Z M225,33 L-3,33 C-6.86599325,33 -10,36.1340068 -10,40 L-10,40 L-10,187 C-10,190.865993 -6.86599325,194 -3,194 L-3,194 L225,194 C228.865993,194 232,190.865993 232,187 L232,187 L232,40 C232,36.1340068 228.865993,33 225,33 L225,33 Z" id="选择背景色"></path>
                <rect id="选择背景色" stroke="#C5E5FF" fill="#FFFFFF" x="53" y="52" width="160" height="84" rx="6"></rect>
                <path d="M59,52 L207,52 C210.313708,52 213,54.6862915 213,58 L213,80 L213,80 L53,80 L53,58 C53,54.6862915 55.6862915,52 59,52 Z" id="选择背景色" stroke="#C5E5FF" fill-opacity="0.49653252" fill="#E5F6FF"></path>
                <path d="M190.253663,61.3607211 L190.313613,61.4136593 L194,65.0995455 L197.686387,61.4136593 C197.934902,61.1651439 198.337825,61.1651439 198.586341,61.4136593 C198.81574,61.6430582 198.833386,62.0040234 198.639279,62.2536633 L198.586341,62.3136134 L194.900455,66 L198.586341,69.6863866 C198.834856,69.9349021 198.834856,70.3378252 198.586341,70.5863407 C198.356942,70.8157396 197.995977,70.8333856 197.746337,70.6392789 L197.686387,70.5863407 L194,66.9004545 L190.313613,70.5863407 C190.065098,70.8348561 189.662175,70.8348561 189.413659,70.5863407 C189.18426,70.3569418 189.166614,69.9959766 189.360721,69.7463367 L189.413659,69.6863866 L193.099545,66 L189.413659,62.3136134 C189.165144,62.0650979 189.165144,61.6621748 189.413659,61.4136593 C189.623942,61.203377 189.944776,61.1710259 190.189075,61.3166059 L190.253663,61.3607211 Z" id="路径" fill="#40A9FF"></path>
                <text id="输入文本" font-size="14" fill="#40A9FF">
                    <tspan x="66" y="71">Notification</tspan>
                </text>
                <rect id="矩形备份-2" fill="#40A9FF" opacity="0.100391933" x="65" y="92" width="136" height="12"></rect>
                <rect id="矩形备份-4" fill="#40A9FF" opacity="0.100391933" x="65" y="112" width="106.84127" height="12"></rect>
            </g>
        </g>
    </g>
</svg>