<?xml version="1.0" encoding="UTF-8"?>
<svg width="245px" height="144px" viewBox="0 0 245 144" version="1.1" xmlns="http://www.w3.org/2000/svg" xmlns:xlink="http://www.w3.org/1999/xlink">
    <title>pagination</title>
    <defs>
        <rect id="path-1" x="0" y="0" width="245" height="144" rx="2"></rect>
    </defs>
    <g id="页面-1" stroke="none" stroke-width="1" fill="none" fill-rule="evenodd">
        <g id="组件图例" transform="translate(-488.000000, -2408.000000)">
            <g id="pagination" transform="translate(488.000000, 2408.000000)">
                <rect id="选择背景色" fill="#E5F6FF" x="189" y="58" width="28" height="28" rx="3.11111111"></rect>
                <path d="M200.917695,68.1853714 C201.096116,68.00695 201.376867,67.9932253 201.571031,68.1441972 L201.617659,68.1853714 L205.082305,71.6500179 C205.260727,71.8284392 205.274451,72.1091899 205.12348,72.3033543 L205.082305,72.3499821 L201.617659,75.8146286 C201.424369,76.0079184 201.110984,76.0079184 200.917695,75.8146286 C200.739273,75.6362073 200.725549,75.3554565 200.87652,75.1612922 L200.917695,75.1146643 L204.03197,72 L200.917695,68.8853357 C200.739273,68.7069143 200.725549,68.4261636 200.87652,68.2319993 L200.917695,68.1853714 Z" id="路径" fill="#40A9FF"></path>
                <rect id="选择背景色" fill="#40A9FF" x="61" y="58" width="28" height="28" rx="3.11111111"></rect>
                <text font-size="10.8888889" line-spacing="17.1111111" fill="#FFFFFF">
                    <tspan x="72.8167778" y="76.4444444">1</tspan>
                </text>
                <rect id="选择背景色" fill="#E5F6FF" x="93" y="58" width="28" height="28" rx="3.11111111"></rect>
                <text font-size="10.8888889" line-spacing="17.1111111" fill="#40A9FF">
                    <tspan x="103.733333" y="76.4444444">2</tspan>
                </text>
                <rect id="选择背景色" fill="#E5F6FF" x="125" y="58" width="28" height="28" rx="3.11111111"></rect>
                <text font-size="10.8888889" line-spacing="17.1111111" fill="#40A9FF">
                    <tspan x="133.555556" y="76.4444444">…</tspan>
                </text>
                <rect id="选择背景色" fill="#E5F6FF" x="157" y="58" width="28" height="28" rx="3.11111111"></rect>
                <text font-size="10.8888889" line-spacing="17.1111111" fill="#40A9FF">
                    <tspan x="164.466667" y="76.4444444">20</tspan>
                </text>
                <rect id="选择背景色" fill="#E5F6FF" x="29" y="58" width="28" height="28" rx="3.11111111"></rect>
                <path d="M44.3823411,68.1853714 C44.5756309,67.9920816 44.8890156,67.9920816 45.0823054,68.1853714 C45.2607267,68.3637927 45.2744515,68.6445435 45.1234795,68.8387078 L45.0823054,68.8853357 L41.9680303,72 L45.0823054,75.1146643 C45.2607267,75.2930857 45.2744515,75.5738364 45.1234795,75.7680007 L45.0823054,75.8146286 C44.903884,75.99305 44.6231333,76.0067747 44.428969,75.8558028 L44.3823411,75.8146286 L40.9176946,72.3499821 C40.7392733,72.1715608 40.7255485,71.8908101 40.8765205,71.6966457 L40.9176946,71.6500179 L44.3823411,68.1853714 Z" id="路径" fill="#40A9FF"></path>
            </g>
        </g>
    </g>
</svg>