<?xml version="1.0" encoding="UTF-8"?>
<svg width="265px" height="180px" viewBox="0 0 265 180" version="1.1" xmlns="http://www.w3.org/2000/svg" xmlns:xlink="http://www.w3.org/1999/xlink">
    <title>thumb</title>
    <defs>
        <rect id="path-1" x="0" y="0" width="265" height="180" rx="2"></rect>
    </defs>
    <g id="页面-1" stroke="none" stroke-width="1" fill="none" fill-rule="evenodd">
        <g id="组件图例" transform="translate(-1525.000000, -2700.000000)">
            <g id="thumb" transform="translate(1525.000000, 2700.000000)">
                <rect id="选择背景色" fill="#E5F6FF" x="32" y="96" width="20" height="20" rx="4"></rect>
                <circle id="椭圆形" fill="#3699FF" opacity="0.478291103" cx="40.125" cy="104.125" r="1.125"></circle>
                <path d="M46.5,100.75 C46.9142136,100.75 47.25,101.085786 47.25,101.5 L47.25,110.5 C47.25,110.914214 46.9142136,111.25 46.5,111.25 L37.5,111.25 C37.0857864,111.25 36.75,110.914214 36.75,110.5 L36.75,101.5 C36.75,101.085786 37.0857864,100.75 37.5,100.75 L46.5,100.75 Z M46.5,101.5 L37.5,101.5 L37.5,110.5 L37.533,110.5 L39.949921,107.019829 L39.949921,107.019829 C40.041449,106.899844 40.1970301,106.865519 40.322716,106.926172 L40.3744771,106.958008 L41.7789033,108.029648 C41.8992161,108.110534 42.0569709,108.092678 42.1564579,107.994835 L42.1952488,107.948061 L46.5,101.5435 L46.5,101.5 Z" id="形状" fill="#3699FF"></path>
                <rect id="选择背景色" fill="#E5F6FF" x="62" y="80" width="37" height="36" rx="4"></rect>
                <circle id="椭圆形" fill="#3699FF" opacity="0.478291103" cx="76.875" cy="94.875" r="1.875"></circle>
                <path d="M87.5,89.25 C88.1903559,89.25 88.75,89.8096441 88.75,90.5 L88.75,105.5 C88.75,106.190356 88.1903559,106.75 87.5,106.75 L72.5,106.75 C71.8096441,106.75 71.25,106.190356 71.25,105.5 L71.25,90.5 C71.25,89.8096441 71.8096441,89.25 72.5,89.25 L87.5,89.25 Z M87.5,90.5 L72.5,90.5 L72.5,105.5 L72.555,105.5 L76.5832017,99.6997158 L76.5832017,99.6997158 C76.7357484,99.4997406 76.9950502,99.4425313 77.2045266,99.5436192 L77.2907952,99.5966795 L79.6315055,101.382746 C79.8320268,101.517556 80.0949515,101.487796 80.2607632,101.324726 L80.3254146,101.246768 L87.5,90.5725 L87.5,90.5 Z" id="形状" fill="#3699FF"></path>
                <rect id="选择背景色" fill="#E5F6FF" x="109" y="64" width="53" height="52" rx="4"></rect>
                <circle id="椭圆形" fill="#3699FF" opacity="0.478291103" cx="130.625" cy="85.625" r="2.625"></circle>
                <path d="M145.5,77.75 C146.466498,77.75 147.25,78.5335017 147.25,79.5 L147.25,100.5 C147.25,101.466498 146.466498,102.25 145.5,102.25 L124.5,102.25 C123.533502,102.25 122.75,101.466498 122.75,100.5 L122.75,79.5 C122.75,78.5335017 123.533502,77.75 124.5,77.75 L145.5,77.75 Z M145.5,79.5 L124.5,79.5 L124.5,100.5 L124.577,100.5 L130.216482,92.3796021 L130.216482,92.3796021 C130.430048,92.0996368 130.79307,92.0195438 131.086337,92.1610668 L131.207113,92.2353513 L134.484108,94.7358447 C134.764838,94.9245783 135.132932,94.8829145 135.365068,94.6546159 L135.45558,94.5454746 L145.5,79.6015 L145.5,79.5 Z" id="形状" fill="#3699FF"></path>
                <rect id="选择背景色" fill="#E5F6FF" x="172" y="56" width="61" height="60" rx="4"></rect>
                <circle id="椭圆形" fill="#3699FF" opacity="0.478291103" cx="196.375" cy="80.375" r="3.375"></circle>
                <path d="M215.5,70.25 C216.742641,70.25 217.75,71.2573593 217.75,72.5 L217.75,99.5 C217.75,100.742641 216.742641,101.75 215.5,101.75 L188.5,101.75 C187.257359,101.75 186.25,100.742641 186.25,99.5 L186.25,72.5 C186.25,71.2573593 187.257359,70.25 188.5,70.25 L215.5,70.25 Z M215.5,72.5 L188.5,72.5 L188.5,99.5 L188.599,99.5 L195.849763,89.0594884 L195.849763,89.0594884 C196.124347,88.6995331 196.59109,88.5965564 196.968148,88.7785145 L197.123431,88.8740231 L201.33671,92.0889432 C201.697648,92.3316007 202.170913,92.278033 202.469374,91.9845061 L202.585746,91.8441816 L215.5,72.6305 L215.5,72.5 Z" id="形状" fill="#3699FF"></path>
            </g>
        </g>
    </g>
</svg>