<?xml version="1.0" encoding="UTF-8"?>
<svg width="265px" height="180px" viewBox="0 0 265 180" version="1.1" xmlns="http://www.w3.org/2000/svg" xmlns:xlink="http://www.w3.org/1999/xlink">
    <title>timepicker</title>
    <defs>
        <rect id="path-1" x="0" y="0" width="265" height="180" rx="2"></rect>
        <rect id="path-3" x="0" y="0" width="200" height="150" rx="3.21403509"></rect>
    </defs>
    <g id="页面-1" stroke="none" stroke-width="1" fill="none" fill-rule="evenodd">
        <g id="组件图例" transform="translate(-1177.000000, -1434.000000)">
            <g id="timepicker" transform="translate(1177.000000, 1434.000000)">
                <g id="编组">
                    <g transform="translate(33.000000, 60.000000)">
  
                        <rect stroke="#C5E5FF" fill="#ffffff" stroke-width="1" x="0.5" y="0.5" width="199" height="149" rx="3.21403509"></rect>
                        <rect id="矩形" stroke="none" fill="#C5E5FF" fill-rule="evenodd" x="66" y="2" width="1" height="132"></rect>
                        <rect id="矩形备份" stroke="none" fill="#C5E5FF" fill-rule="evenodd" x="132" y="2" width="1" height="132"></rect>
                        <rect id="矩形备份-2" stroke="none" fill="#40A9FF" fill-rule="evenodd" opacity="0.100391933" x="1" y="52" width="198" height="36"></rect>
                        <text id="输入文本" stroke="none" fill="none" font-size="14" line-spacing="22">
                            <tspan x="26.493" y="74" fill="#40A9FF">18</tspan>
                        </text>
                        <text id="输入文本" stroke="none" fill="none" font-size="14" line-spacing="22">
                            <tspan x="26.364" y="40" fill="#40A9FF">17</tspan>
                        </text>
                        <text id="输入文本" stroke="none" fill="none" font-size="14" line-spacing="22">
                            <tspan x="25.993" y="110" fill="#40A9FF">19</tspan>
                        </text>
                        <text id="输入文本" stroke="none" fill="none" font-size="14" line-spacing="22">
                            <tspan x="91.1" y="74" fill="#40A9FF">00</tspan>
                        </text>
                        <text id="输入文本" stroke="none" fill="none" font-size="14" line-spacing="22">
                            <tspan x="91.993" y="110" fill="#40A9FF">01</tspan>
                        </text>
                        <text id="输入文本" stroke="none" fill="none" font-size="14" line-spacing="22">
                            <tspan x="158.1" y="110" fill="#40A9FF">02</tspan>
                        </text>
                        <text id="输入文本" stroke="none" fill="none" font-size="14" line-spacing="22">
                            <tspan x="158.1" y="74" fill="#40A9FF">00</tspan>
                        </text>
                        <path d="M32.9857405,9.94028598 C33.2479107,9.67811582 33.6604424,9.65794889 33.945745,9.87978517 L34.0142595,9.94028598 L39.1051686,15.0311951 C39.3891862,15.3152127 39.3891862,15.7756964 39.1051686,16.059714 C38.8429984,16.3218842 38.4304667,16.3420511 38.145164,16.1202148 L38.0766496,16.059714 L33.5,11.4836364 L28.9233504,16.059714 C28.6611802,16.3218842 28.2486486,16.3420511 27.9633459,16.1202148 L27.8948314,16.059714 C27.6326613,15.7975439 27.6124943,15.3850122 27.8343306,15.0997095 L27.8948314,15.0311951 L32.9857405,9.94028598 Z" id="路径" stroke="none" fill="#40A9FF" fill-rule="evenodd"></path>
                        <path d="M98.9857405,9.94028598 C99.2479107,9.67811582 99.6604424,9.65794889 99.945745,9.87978517 L100.014259,9.94028598 L105.105169,15.0311951 C105.389186,15.3152127 105.389186,15.7756964 105.105169,16.059714 C104.842998,16.3218842 104.430467,16.3420511 104.145164,16.1202148 L104.07665,16.059714 L99.5,11.4836364 L94.9233504,16.059714 C94.6611802,16.3218842 94.2486486,16.3420511 93.9633459,16.1202148 L93.8948314,16.059714 C93.6326613,15.7975439 93.6124943,15.3850122 93.8343306,15.0997095 L93.8948314,15.0311951 L98.9857405,9.94028598 Z" id="路径" stroke="none" fill="#40A9FF" fill-rule="evenodd"></path>
                        <path d="M164.985741,9.94028598 C165.247911,9.67811582 165.660442,9.65794889 165.945745,9.87978517 L166.014259,9.94028598 L171.105169,15.0311951 C171.389186,15.3152127 171.389186,15.7756964 171.105169,16.059714 C170.842998,16.3218842 170.430467,16.3420511 170.145164,16.1202148 L170.07665,16.059714 L165.5,11.4836364 L160.92335,16.059714 C160.66118,16.3218842 160.248649,16.3420511 159.963346,16.1202148 L159.894831,16.059714 C159.632661,15.7975439 159.612494,15.3850122 159.834331,15.0997095 L159.894831,15.0311951 L164.985741,9.94028598 Z" id="路径" stroke="none" fill="#40A9FF" fill-rule="evenodd"></path>
                    </g>
                </g>
                <rect id="矩形" stroke="#40A9FF" stroke-width="2" fill="#FFFFFF" x="34" y="25" width="198" height="26" rx="4"></rect>
                <path d="M209.095478,35.3227502 C209.324876,35.0933513 209.685842,35.0757053 209.935481,35.269812 L209.995432,35.3227502 L214,39.3268182 L218.004568,35.3227502 C218.233967,35.0933513 218.594933,35.0757053 218.844572,35.269812 L218.904522,35.3227502 C219.133921,35.5521491 219.151567,35.9131143 218.957461,36.1627542 L218.904522,36.2227043 L214.449977,40.6772498 C214.220578,40.9066487 213.859613,40.9242947 213.609973,40.730188 L213.550023,40.6772498 L209.095478,36.2227043 C208.846962,35.9741889 208.846962,35.5712657 209.095478,35.3227502 Z" id="路径" fill="#40A9FF"></path>
                <text id="输入文本" font-size="14" fill="#40A9FF">
                    <tspan x="68" y="43">18:00:00</tspan>
                </text>
                <path d="M52,44.3636364 C55.5145393,44.3636364 58.3636364,41.5145393 58.3636364,38 C58.3636364,34.4854607 55.5145393,31.6363636 52,31.6363636 C48.4854607,31.6363636 45.6363636,34.4854607 45.6363636,38 C45.6363636,41.5145393 48.4854607,44.3636364 52,44.3636364 Z M52,34.1818182 L52,38 L54.5454545,39.2727273" id="椭圆形-2" stroke="#40A9FF" stroke-width="1.5" stroke-linecap="round" stroke-linejoin="round"></path>
            </g>
        </g>
    </g>
</svg>