<?xml version="1.0" encoding="UTF-8"?>
<svg width="265px" height="180px" viewBox="0 0 265 180" version="1.1" xmlns="http://www.w3.org/2000/svg" xmlns:xlink="http://www.w3.org/1999/xlink">
    <title>upload</title>
    <defs>
        <rect id="path-1" x="0" y="0" width="265" height="180" rx="2"></rect>
    </defs>
    <g id="页面-1" stroke="none" stroke-width="1" fill="none" fill-rule="evenodd">
        <g id="组件图例" transform="translate(-129.000000, -1744.000000)">
            <g id="upload" transform="translate(129.000000, 1744.000000)">
                <rect id="选择背景色" fill="#40A9FF" x="24" y="20" width="84" height="28" rx="4"></rect>
                <path d="M94.7272727,36.5454545 L94.7272727,39.0909091 C94.7272727,39.793817 94.1574533,40.3636364 93.4545455,40.3636364 L84.5454545,40.3636364 C83.8425467,40.3636364 83.2727273,39.793817 83.2727273,39.0909091 L83.2727273,36.5454545 L83.2727273,36.5454545 M89,27.6363636 L89,34.6363636 M89,27.6363636 L86.4545455,30.1818182 M89,27.6363636 L91.5454545,30.1818182" id="形状结合" stroke="#FFFFFF" stroke-width="1.25" stroke-linecap="round" stroke-linejoin="round"></path>
                <text font-size="12" fill="#FFFFFF">
                    <tspan x="37.404" y="38">Upload</tspan>
                </text>
                <rect id="选择背景色" stroke="#C5E5FF" fill="#FFFFFF" x="24" y="60" width="217" height="48" rx="4"></rect>
                <path d="M221,76 C222.141063,76 223.226329,76.2388937 224.208511,76.6693946 C226.567577,77.7033974 228.331962,79.8427684 228.846457,82.4322971 C228.94718,82.9392507 229,83.463457 229,84 C229,88.418278 225.418278,92 221,92 C216.581722,92 213,88.418278 213,84 C213,79.581722 216.581722,76 221,76 Z M217.57665,80.5766496 C217.314479,80.8388198 217.294313,81.2513514 217.516149,81.5366541 L217.57665,81.6051686 L219.971,84 L217.57665,86.3948314 L217.516149,86.4633459 C217.294313,86.7486486 217.314479,87.1611802 217.57665,87.4233504 C217.860667,87.7073681 218.321151,87.7073681 218.605169,87.4233504 L218.605169,87.4233504 L221,85.029 L223.394831,87.4233504 C223.678849,87.7073681 224.139333,87.7073681 224.42335,87.4233504 C224.685521,87.1611802 224.705687,86.7486486 224.483851,86.4633459 L224.42335,86.3948314 L222.029,84 L224.42335,81.6051686 L224.483851,81.5366541 C224.705687,81.2513514 224.685521,80.8388198 224.42335,80.5766496 C224.139333,80.2926319 223.678849,80.2926319 223.394831,80.5766496 L223.394831,80.5766496 L221,82.971 L218.605169,80.5766496 C218.321151,80.2926319 217.860667,80.2926319 217.57665,80.5766496 Z" id="路径" fill="#40A9FF"></path>
                <rect id="选择背景色" fill="#E5F6FF" x="73" y="90.56" width="127" height="4" rx="2"></rect>
                <rect id="选择背景色" fill="#40A9FF" x="73" y="90.56" width="63.5" height="4" rx="2"></rect>
                <text font-size="12" fill="#84A4F6">
                    <tspan x="173.96" y="82.6">50%</tspan>
                </text>
                <text font-size="12" fill="#84A4F6">
                    <tspan x="73" y="82.6">Uikit3.sketch</tspan>
                </text>
                <path d="M38.5,78 L44.5857539,78 C44.8509896,78 45.1053604,78.1053721 45.2929,78.2929325 L47.7067671,80.7070675 C47.8943066,80.8946279 48.1486774,81 48.4139131,81 L57.5,81 C58.0522847,81 58.5,81.4477153 58.5,82 L58.5,93.5 C58.5,94.0522847 58.0522847,94.5 57.5,94.5 L38.5,94.5 C37.9477153,94.5 37.5,94.0522847 37.5,93.5 L37.5,79 C37.5,78.4477153 37.9477153,78 38.5,78 Z" id="矩形" fill="#3699FF"></path>
                <path d="M40,73.5 L56,73.5 C56.5522847,73.5 57,73.9477153 57,74.5 L57,79.1 C57,79.3209139 56.8209139,79.5 56.6,79.5 L49.18615,79.5 C48.9224003,79.5 48.6693304,79.3958021 48.4820433,79.2100941 L46.0412748,76.7899059 C45.8539877,76.6041979 45.6009178,76.5 45.3371681,76.5 L39.2,76.5 C39.0895431,76.5 39,76.4104569 39,76.3 L39,74.5 C39,73.9477153 39.4477153,73.5 40,73.5 Z" id="矩形" fill="#3699FF" opacity="0.319999993"></path>
                <rect id="选择背景色" fill="#E5F6FF" x="24" y="116" width="217" height="48" rx="4"></rect>
                <path d="M227.090909,135.909091 L227.090909,146.090909 C227.090909,146.894232 226.439687,147.545455 225.636364,147.545455 L216.909091,147.545455 C216.105768,147.545455 215.454545,146.894232 215.454545,146.090909 L215.454545,135.909091 L215.454545,135.909091 M214,135.909091 L228.545455,135.909091 M218.363636,135.181818 L218.363636,133.727273 C218.363636,133.325611 218.689247,133 219.090909,133 L223.454545,133 C223.856207,133 224.181818,133.325611 224.181818,133.727273 L224.181818,135.181818 L224.181818,135.181818 M218.363636,135.181818 L218.363636,133.727273 C218.363636,133.325611 218.689247,133 219.090909,133 L223.454545,133 C223.856207,133 224.181818,133.325611 224.181818,133.727273 L224.181818,135.181818 L224.181818,135.181818 M219.090909,139.545455 L219.090909,143.909091 M223.454545,139.545455 L223.454545,143.909091" id="形状结合" stroke="#3699FF" fill-opacity="0.2" fill="#3699FF" stroke-linecap="round" stroke-linejoin="round"></path>
                <rect id="选择背景色" fill="#40A9FF" x="73" y="146.56" width="127" height="4" rx="2"></rect>
                <text font-size="12" fill="#84A4F6">
                    <tspan x="169.148" y="138.6">100%</tspan>
                </text>
                <text font-size="12" fill="#84A4F6">
                    <tspan x="73" y="138.6">update.psd</tspan>
                </text>
                <circle id="椭圆形" fill="#3699FF" opacity="0.319999993" cx="44.25" cy="136.25" r="2.25"></circle>
                <path d="M57,129.5 C57.8284271,129.5 58.5,130.171573 58.5,131 L58.5,149 C58.5,149.828427 57.8284271,150.5 57,150.5 L39,150.5 C38.1715729,150.5 37.5,149.828427 37.5,149 L37.5,131 C37.5,130.171573 38.1715729,129.5 39,129.5 L57,129.5 Z M57,131 L39,131 L39,149 L39.066,149 L43.899842,142.039659 L43.899842,142.039659 C44.0828981,141.799689 44.3940602,141.731038 44.6454319,141.852343 L44.7489542,141.916015 L47.5578066,144.059295 C47.7984322,144.221067 48.1139418,144.185355 48.3129158,143.989671 L48.3904975,143.896121 L57,131.087 L57,131 Z" id="形状" fill="#3699FF"></path>
            </g>
        </g>
    </g>
</svg>