<?xml version="1.0" encoding="UTF-8"?>
<svg width="38px" height="38px" viewBox="0 0 38 38" version="1.1" xmlns="http://www.w3.org/2000/svg" xmlns:xlink="http://www.w3.org/1999/xlink">
    <title>画板</title>
    <defs>
        <linearGradient x1="50%" y1="0%" x2="50%" y2="100%" id="linearGradient-1">
            <stop stop-color="#7A66FF" offset="0%"></stop>
            <stop stop-color="#4436FF" offset="100%"></stop>
        </linearGradient>
        <linearGradient x1="50%" y1="0%" x2="50%" y2="100%" id="linearGradient-2">
            <stop stop-color="#3AE4E0" offset="0%"></stop>
            <stop stop-color="#1BC5BD" offset="100%"></stop>
        </linearGradient>
    </defs>
    <g id="画板" stroke="none" stroke-width="1" fill="none" fill-rule="evenodd" opacity="0.800000012">
        <g id="logo-sim" transform="translate(6.000000, 4.000000)" fill-rule="nonzero">
            <path d="M25.2259303,1.68179061 L25.2259303,28.3182713 C25.2259303,29.2470644 24.4729947,30 23.5442016,30 C23.1623289,30 22.7918264,29.8700347 22.493634,29.6314808 L5.84583355,16.3132404 C5.12056799,15.733028 5.00297921,14.6747289 5.58319166,13.9494634 C5.66077277,13.852487 5.74885717,13.7644026 5.84583355,13.6868215 L22.493634,0.368581136 C23.2188996,-0.211631317 24.2771986,-0.0940425362 24.8574111,0.631223031 C25.095965,0.92941547 25.2259303,1.29991796 25.2259303,1.68179061 Z" id="路径-2" fill="url(#linearGradient-1)"></path>
            <path d="M0,1.68179061 L0,28.3182713 C0,29.2470644 0.752935578,30 1.68172868,30 C2.06360133,30 2.43410383,29.8700347 2.73229626,29.6314808 L19.3800967,16.3132404 C20.1053623,15.733028 20.2229511,14.6747289 19.6427386,13.9494634 C19.5651575,13.852487 19.4770731,13.7644026 19.3800967,13.6868215 L2.73229626,0.368581136 C2.0070307,-0.211631317 0.948731662,-0.0940425362 0.368519209,0.631223031 C0.129965257,0.92941547 0,1.29991796 0,1.68179061 Z" id="路径-2" fill="url(#linearGradient-2)"></path>
        </g>
    </g>
</svg>