<?xml version="1.0" encoding="UTF-8"?>
<svg width="265px" height="180px" viewBox="0 0 265 180" version="1.1" xmlns="http://www.w3.org/2000/svg" xmlns:xlink="http://www.w3.org/1999/xlink">
    <title>alert</title>
    <defs>
        <rect id="path-1" x="0" y="0" width="265" height="180" rx="2"></rect>
    </defs>
    <g id="页面-1" stroke="none" stroke-width="1" fill="none" fill-rule="evenodd">
        <g id="组件图例" transform="translate(-129.000000, -3010.000000)">
            <g id="alert" transform="translate(129.000000, 3010.000000)">
                <rect id="选择背景色" stroke="#00B2FF" fill="#DBF2FF" x="30.5" y="72.5" width="204" height="35" rx="4"></rect>
                <path d="M212.253663,85.3607211 L212.313613,85.4136593 L216,89.0995455 L219.686387,85.4136593 C219.934902,85.1651439 220.337825,85.1651439 220.586341,85.4136593 C220.81574,85.6430582 220.833386,86.0040234 220.639279,86.2536633 L220.586341,86.3136134 L216.900455,90 L220.586341,93.6863866 C220.834856,93.9349021 220.834856,94.3378252 220.586341,94.5863407 C220.356942,94.8157396 219.995977,94.8333856 219.746337,94.6392789 L219.686387,94.5863407 L216,90.9004545 L212.313613,94.5863407 C212.065098,94.8348561 211.662175,94.8348561 211.413659,94.5863407 C211.18426,94.3569418 211.166614,93.9959766 211.360721,93.7463367 L211.413659,93.6863866 L215.099545,90 L211.413659,86.3136134 C211.165144,86.0650979 211.165144,85.6621748 211.413659,85.4136593 C211.623942,85.203377 211.944776,85.1710259 212.189075,85.3166059 L212.253663,85.3607211 Z" id="路径" fill="#40A9FF"></path>
                <text font-size="12" fill="#40A9FF">
                    <tspan x="61" y="94">Warning notices</tspan>
                </text>
                <path d="M48.7243555,84.3060243 C48.9450703,84.1668042 49.2297482,84.2123402 49.397245,84.4016186 L49.4484887,84.469979 L55.6716192,95.2109176 C55.7245075,95.2947649 55.7525753,95.391873 55.7525753,95.4910069 C55.7525753,95.7519614 55.5621844,95.9684478 55.312733,96.0091355 L55.2275753,96.0160069 L42.7813142,96.0160069 C42.6821803,96.0160069 42.5850722,95.9879391 42.501225,95.9350508 C42.2805101,95.7958307 42.1989806,95.5193022 42.2976501,95.2866098 L42.3372703,95.2109176 L48.5604008,84.469979 C48.6021501,84.4037911 48.6581677,84.3477735 48.7243555,84.3060243 Z M49.0103527,93.0999758 C48.7204032,93.0999758 48.4853527,93.3350263 48.4853527,93.6249758 C48.4853527,93.9149253 48.7204032,94.1499758 49.0103527,94.1499758 C49.3003022,94.1499758 49.5353527,93.9149253 49.5353527,93.6249758 C49.5353527,93.3350263 49.3003022,93.0999758 49.0103527,93.0999758 Z M49.0125801,88.7224643 C48.7978027,88.7224643 48.6191728,88.8772301 48.5821288,89.0813231 L48.5750801,89.1599643 L48.5750801,91.7849643 C48.5750801,92.0265889 48.7709555,92.2224643 49.0125801,92.2224643 C49.2273575,92.2224643 49.4059874,92.0676985 49.4430314,91.8636055 L49.4500801,91.7849643 L49.4500801,89.1599643 C49.4500801,88.9183397 49.2542047,88.7224643 49.0125801,88.7224643 Z" id="形状" fill="#40A9FF"></path>
            </g>
        </g>
    </g>
</svg>