<?xml version="1.0" encoding="UTF-8"?>
<svg width="265px" height="180px" viewBox="0 0 265 180" version="1.1" xmlns="http://www.w3.org/2000/svg" xmlns:xlink="http://www.w3.org/1999/xlink">
    <title>calendar</title>
    <defs>
        <rect id="path-1" x="0" y="0" width="265" height="180" rx="2"></rect>
    </defs>
    <g id="页面-1" stroke="none" stroke-width="1" fill="none" fill-rule="evenodd">
        <g id="组件图例" transform="translate(-478.000000, -2080.000000)">
            <g id="calendar" transform="translate(478.000000, 2080.000000)">
                <path d="M227.859649,153.315789 L227.859649,177.421053 L199.736842,177.421053 L199.736842,153.315789 L227.859649,153.315789 Z M227.05614,154.119298 L200.540351,154.119298 L200.540351,176.617544 L227.05614,176.617544 L227.05614,154.119298 Z" id="选择背景色" fill="#E5F6FF" mask="url(#mask-2)"></path>
                <text font-size="10.445614" line-spacing="16.0701754" fill="#40A9FF">
                    <tspan x="207.530877" y="169.333333">22</tspan>
                </text>
                <path d="M200.736842,153.315789 L200.736842,177.421053 L172.614035,177.421053 L172.614035,153.315789 L200.736842,153.315789 Z M199.933333,154.119298 L173.417544,154.119298 L173.417544,176.617544 L199.933333,176.617544 L199.933333,154.119298 Z" id="选择背景色" fill="#E5F6FF" mask="url(#mask-2)"></path>
                <text font-size="10.445614" line-spacing="16.0701754" fill="#40A9FF">
                    <tspan x="181.447409" y="169.333333">21</tspan>
                </text>
                <path d="M173.614035,153.315789 L173.614035,177.421053 L145.491228,177.421053 L145.491228,153.315789 L173.614035,153.315789 Z M172.810526,154.119298 L146.294737,154.119298 L146.294737,176.617544 L172.810526,176.617544 L172.810526,154.119298 Z" id="选择背景色" fill="#E5F6FF" mask="url(#mask-2)"></path>
                <text font-size="10.445614" line-spacing="16.0701754" fill="#40A9FF">
                    <tspan x="153.285263" y="169.333333">20</tspan>
                </text>
                <path d="M146.491228,153.315789 L146.491228,177.421053 L118.368421,177.421053 L118.368421,153.315789 L146.491228,153.315789 Z M145.687719,154.119298 L119.17193,154.119298 L119.17193,176.617544 L145.687719,176.617544 L145.687719,154.119298 Z" id="选择背景色" fill="#E5F6FF" mask="url(#mask-2)"></path>
                <text font-size="10.445614" line-spacing="16.0701754" fill="#40A9FF">
                    <tspan x="127.201795" y="169.333333">19</tspan>
                </text>
                <path d="M119.368421,153.315789 L119.368421,177.421053 L91.245614,177.421053 L91.245614,153.315789 L119.368421,153.315789 Z M118.564912,154.119298 L92.0491228,154.119298 L92.0491228,176.617544 L118.564912,176.617544 L118.564912,154.119298 Z" id="选择背景色" fill="#E5F6FF" mask="url(#mask-2)"></path>
                <text font-size="10.445614" line-spacing="16.0701754" fill="#40A9FF">
                    <tspan x="100.078988" y="169.333333">18</tspan>
                </text>
                <path d="M92.245614,153.315789 L92.245614,177.421053 L64.122807,177.421053 L64.122807,153.315789 L92.245614,153.315789 Z M91.4421053,154.119298 L64.9263158,154.119298 L64.9263158,176.617544 L91.4421053,176.617544 L91.4421053,154.119298 Z" id="选择背景色" fill="#E5F6FF" mask="url(#mask-2)"></path>
                <text font-size="10.445614" line-spacing="16.0701754" fill="#40A9FF">
                    <tspan x="73.2329895" y="169.333333">17</tspan>
                </text>
                <path d="M65.122807,153.315789 L65.122807,177.421053 L37,177.421053 L37,153.315789 L65.122807,153.315789 Z M64.3192982,154.119298 L37.8035088,154.119298 L37.8035088,176.617544 L64.3192982,176.617544 L64.3192982,154.119298 Z" id="选择背景色" fill="#E5F6FF" mask="url(#mask-2)"></path>
                <text font-size="10.445614" line-spacing="16.0701754" fill="#40A9FF">
                    <tspan x="45.8333737" y="169.333333">16</tspan>
                </text>
                <path d="M227.859649,130.210526 L227.859649,154.315789 L199.736842,154.315789 L199.736842,130.210526 L227.859649,130.210526 Z M227.05614,131.014035 L200.540351,131.014035 L200.540351,153.512281 L227.05614,153.512281 L227.05614,131.014035 Z" id="选择背景色" fill="#E5F6FF" mask="url(#mask-2)"></path>
                <text font-size="10.445614" line-spacing="16.0701754" fill="#40A9FF">
                    <tspan x="208.570216" y="146.22807">15</tspan>
                </text>
                <path d="M200.736842,130.210526 L200.736842,154.315789 L172.614035,154.315789 L172.614035,130.210526 L200.736842,130.210526 Z M199.933333,131.014035 L173.417544,131.014035 L173.417544,153.512281 L199.933333,153.512281 L199.933333,131.014035 Z" id="选择背景色" fill="#E5F6FF" mask="url(#mask-2)"></path>
                <text font-size="10.445614" line-spacing="16.0701754" fill="#40A9FF">
                    <tspan x="181.447409" y="146.22807">14</tspan>
                </text>
                <path d="M173.614035,130.210526 L173.614035,154.315789 L145.491228,154.315789 L145.491228,130.210526 L173.614035,130.210526 Z M172.810526,131.014035 L146.294737,131.014035 L146.294737,153.512281 L172.810526,153.512281 L172.810526,131.014035 Z" id="选择背景色" fill="#E5F6FF" mask="url(#mask-2)"></path>
                <text font-size="10.445614" line-spacing="16.0701754" fill="#40A9FF">
                    <tspan x="154.324602" y="146.22807">13</tspan>
                </text>
                <path d="M146.491228,130.210526 L146.491228,154.315789 L118.368421,154.315789 L118.368421,130.210526 L146.491228,130.210526 Z M145.687719,131.014035 L119.17193,131.014035 L119.17193,153.512281 L145.687719,153.512281 L145.687719,131.014035 Z" id="选择背景色" fill="#E5F6FF" mask="url(#mask-2)"></path>
                <text font-size="10.445614" line-spacing="16.0701754" fill="#40A9FF">
                    <tspan x="127.201795" y="146.22807">12</tspan>
                </text>
                <path d="M119.368421,130.210526 L119.368421,154.315789 L91.245614,154.315789 L91.245614,130.210526 L119.368421,130.210526 Z M118.564912,131.014035 L92.0491228,131.014035 L92.0491228,153.512281 L118.564912,153.512281 L118.564912,131.014035 Z" id="选择背景色" fill="#E5F6FF" mask="url(#mask-2)"></path>
                <text font-size="10.445614" line-spacing="16.0701754" fill="#40A9FF">
                    <tspan x="101.118326" y="146.22807">11</tspan>
                </text>
                <path d="M92.245614,130.210526 L92.245614,154.315789 L64.122807,154.315789 L64.122807,130.210526 L92.245614,130.210526 Z M91.4421053,131.014035 L64.9263158,131.014035 L64.9263158,153.512281 L91.4421053,153.512281 L91.4421053,131.014035 Z" id="选择背景色" fill="#E5F6FF" mask="url(#mask-2)"></path>
                <text font-size="10.445614" line-spacing="16.0701754" fill="#40A9FF">
                    <tspan x="72.9561807" y="146.22807">10</tspan>
                </text>
                <path d="M65.122807,130.210526 L65.122807,154.315789 L37,154.315789 L37,130.210526 L65.122807,130.210526 Z M64.3192982,131.014035 L37.8035088,131.014035 L37.8035088,153.512281 L64.3192982,153.512281 L64.3192982,131.014035 Z" id="选择背景色" fill="#E5F6FF" mask="url(#mask-2)"></path>
                <text font-size="10.445614" line-spacing="16.0701754" fill="#40A9FF">
                    <tspan x="47.9277193" y="146.22807">9</tspan>
                </text>
                <path d="M200.736842,107.105263 L200.736842,131.210526 L172.614035,131.210526 L172.614035,107.105263 L200.736842,107.105263 Z M199.933333,107.908772 L173.417544,107.908772 L173.417544,130.407018 L199.933333,130.407018 L199.933333,107.908772 Z" id="选择背景色" fill="#E5F6FF" mask="url(#mask-2)"></path>
                <text font-size="10.445614" line-spacing="16.0701754" fill="#40A9FF">
                    <tspan x="183.541754" y="123.122807">8</tspan>
                </text>
                <path d="M173.614035,107.105263 L173.614035,131.210526 L145.491228,131.210526 L145.491228,107.105263 L173.614035,107.105263 Z M172.810526,107.908772 L146.294737,107.908772 L146.294737,130.407018 L172.810526,130.407018 L172.810526,107.908772 Z" id="选择背景色" fill="#E5F6FF" mask="url(#mask-2)"></path>
                <text font-size="10.445614" line-spacing="16.0701754" fill="#40A9FF">
                    <tspan x="156.695756" y="123.122807">7</tspan>
                </text>
                <path d="M146.491228,107.105263 L146.491228,131.210526 L118.368421,131.210526 L118.368421,107.105263 L146.491228,107.105263 Z M145.687719,107.908772 L119.17193,107.908772 L119.17193,130.407018 L145.687719,130.407018 L145.687719,107.908772 Z" id="选择背景色" fill="#E5F6FF" mask="url(#mask-2)"></path>
                <text font-size="10.445614" line-spacing="16.0701754" fill="#40A9FF">
                    <tspan x="129.29614" y="123.122807">6</tspan>
                </text>
                <path d="M119.368421,107.105263 L119.368421,131.210526 L91.245614,131.210526 L91.245614,107.105263 L119.368421,107.105263 Z M118.564912,107.908772 L92.0491228,107.908772 L92.0491228,130.407018 L118.564912,130.407018 L118.564912,107.908772 Z" id="选择背景色" fill="#E5F6FF" mask="url(#mask-2)"></path>
                <text font-size="10.445614" line-spacing="16.0701754" fill="#40A9FF">
                    <tspan x="102.173333" y="123.122807">5</tspan>
                </text>
                <path d="M92.245614,107.105263 L92.245614,131.210526 L64.122807,131.210526 L64.122807,107.105263 L92.245614,107.105263 Z M91.4421053,107.908772 L64.9263158,107.908772 L64.9263158,130.407018 L91.4421053,130.407018 L91.4421053,107.908772 Z" id="选择背景色" fill="#E5F6FF" mask="url(#mask-2)"></path>
                <text font-size="10.445614" line-spacing="16.0701754" fill="#40A9FF">
                    <tspan x="75.0505263" y="123.122807">4</tspan>
                </text>
                <path d="M65.122807,107.105263 L65.122807,131.210526 L37,131.210526 L37,107.105263 L65.122807,107.105263 Z M64.3192982,107.908772 L37.8035088,107.908772 L37.8035088,130.407018 L64.3192982,130.407018 L64.3192982,107.908772 Z" id="选择背景色" fill="#E5F6FF" mask="url(#mask-2)"></path>
                <text font-size="10.445614" line-spacing="16.0701754" fill="#40A9FF">
                    <tspan x="47.9277193" y="123.122807">3</tspan>
                </text>
                <path d="M227.859649,107.105263 L227.859649,131.210526 L199.736842,131.210526 L199.736842,107.105263 L227.859649,107.105263 Z M227.05614,107.908772 L200.540351,107.908772 L200.540351,130.407018 L227.05614,130.407018 L227.05614,107.908772 Z" id="选择背景色" fill="#E5F6FF" mask="url(#mask-2)"></path>
                <text font-size="10.445614" line-spacing="16.0701754" fill="#40A9FF">
                    <tspan x="210.664561" y="123.122807">9</tspan>
                </text>
                <path d="M200.859649,84 L200.859649,108.105263 L172.736842,108.105263 L172.736842,84 L200.859649,84 Z M200.05614,84.8035088 L173.540351,84.8035088 L173.540351,107.301754 L200.05614,107.301754 L200.05614,84.8035088 Z" id="选择背景色" fill="#E5F6FF" mask="url(#mask-2)"></path>
                <text font-size="10.445614" line-spacing="16.0701754" fill="#40A9FF">
                    <tspan x="184.7039" y="100.0175439">1</tspan>
                </text>
                <path d="M227.982456,84 L227.982456,108.105263 L199.859649,108.105263 L199.859649,84 L227.982456,84 Z M227.178947,84.8035088 L200.663158,84.8035088 L200.663158,107.301754 L227.178947,107.301754 L227.178947,84.8035088 Z" id="选择背景色" fill="#E5F6FF" mask="url(#mask-2)"></path>
                <text font-size="10.445614" line-spacing="16.0701754" fill="#40A9FF">
                    <tspan x="210.787368" y="100.0175439">2</tspan>
                </text>
                <path d="M173.736842,84 L173.736842,108.105263 L145.614035,108.105263 L145.614035,84 L173.736842,84 Z M172.933333,84.8035088 L146.417544,84.8035088 L146.417544,107.301754 L172.933333,107.301754 L172.933333,84.8035088 Z" id="选择背景色" fill="#E5F6FF" mask="url(#mask-2)"></path>
                <text opacity="0.2" font-size="10.445614" line-spacing="16.0701754" fill="#40A9FF">
                    <tspan x="154.447409" y="100.0175439">31</tspan>
                </text>
                <path d="M146.614035,84 L146.614035,108.105263 L118.491228,108.105263 L118.491228,84 L146.614035,84 Z M145.810526,84.8035088 L119.294737,84.8035088 L119.294737,107.301754 L145.810526,107.301754 L145.810526,84.8035088 Z" id="选择背景色" fill="#E5F6FF" mask="url(#mask-2)"></path>
                <text opacity="0.2" font-size="10.445614" line-spacing="16.0701754" fill="#40A9FF">
                    <tspan x="126.285263" y="100.0175439">30</tspan>
                </text>
                <path d="M119.491228,84 L119.491228,108.105263 L91.3684211,108.105263 L91.3684211,84 L119.491228,84 Z M118.687719,84.8035088 L92.1719298,84.8035088 L92.1719298,107.301754 L118.687719,107.301754 L118.687719,84.8035088 Z" id="选择背景色" fill="#E5F6FF" mask="url(#mask-2)"></path>
                <text opacity="0.2" font-size="10.445614" line-spacing="16.0701754" fill="#40A9FF">
                    <tspan x="99.1624561" y="100.0175439">29</tspan>
                </text>
                <path d="M92.3684211,84 L92.3684211,108.105263 L64.245614,108.105263 L64.245614,84 L92.3684211,84 Z M91.5649123,84.8035088 L65.0491228,84.8035088 L65.0491228,107.301754 L91.5649123,107.301754 L91.5649123,84.8035088 Z" id="选择背景色" fill="#E5F6FF" mask="url(#mask-2)"></path>
                <text opacity="0.2" font-size="10.445614" line-spacing="16.0701754" fill="#40A9FF">
                    <tspan x="72.0396491" y="100.0175439">28</tspan>
                </text>
                <path d="M65.245614,84 L65.245614,108.105263 L37.122807,108.105263 L37.122807,84 L65.245614,84 Z M64.4421053,84.8035088 L37.9263158,84.8035088 L37.9263158,107.301754 L64.4421053,107.301754 L64.4421053,84.8035088 Z" id="选择背景色" fill="#E5F6FF" mask="url(#mask-2)"></path>
                <text opacity="0.2" font-size="10.445614" line-spacing="16.0701754" fill="#40A9FF">
                    <tspan x="45.1936509" y="100.0175439">27</tspan>
                </text>
                <text opacity="0.5" font-size="10.445614" line-spacing="16.0701754" fill="#40A9FF">
                    <tspan x="208.575439" y="72.0175439">六</tspan>
                </text>
                <text opacity="0.5" font-size="10.445614" line-spacing="16.0701754" fill="#40A9FF">
                    <tspan x="181.452632" y="72.0175439">五</tspan>
                </text>
                <text opacity="0.5" font-size="10.445614" line-spacing="16.0701754" fill="#40A9FF">
                    <tspan x="154.329825" y="72.0175439">四</tspan>
                </text>
                <text opacity="0.5" font-size="10.445614" line-spacing="16.0701754" fill="#40A9FF">
                    <tspan x="127.207018" y="72.0175439">三</tspan>
                </text>
                <text opacity="0.5" font-size="10.445614" line-spacing="16.0701754" fill="#40A9FF">
                    <tspan x="100.084211" y="72.0175439">二</tspan>
                </text>
                <text opacity="0.5" font-size="10.445614" line-spacing="16.0701754" fill="#40A9FF">
                    <tspan x="72.9614035" y="72.0175439">一</tspan>
                </text>
                <text opacity="0.5" font-size="10.445614" line-spacing="16.0701754" fill="#40A9FF">
                    <tspan x="45.8385965" y="72.0175439">日</tspan>
                </text>
                <path d="M50.4982481,36.1118047 C50.6979325,35.9121204 51.0216848,35.9121204 51.2213691,36.1118047 C51.4056931,36.2961287 51.4198719,36.5861675 51.2639054,36.7867553 L51.2213691,36.8349257 L48.0040654,40.0526316 L51.2213691,43.2703374 C51.4056931,43.4546614 51.4198719,43.7447002 51.2639054,43.945288 L51.2213691,43.9934584 C51.0370451,44.1777824 50.7470064,44.1919612 50.5464186,44.0359947 L50.4982481,43.9934584 L46.9189818,40.4141921 C46.7346577,40.2298681 46.720479,39.9398293 46.8764455,39.7392415 L46.9189818,39.6910711 L50.4982481,36.1118047 Z" id="路径" fill="#40A9FF" mask="url(#mask-2)"></path>
                <path d="M212.63828,36.1118047 C212.822604,35.9274807 213.112643,35.9133019 213.313231,36.0692684 L213.361401,36.1118047 L216.940667,39.6910711 C217.124991,39.8753951 217.13917,40.1654338 216.983204,40.3660216 L216.940667,40.4141921 L213.361401,43.9934584 C213.161717,44.1931428 212.837964,44.1931428 212.63828,43.9934584 C212.453956,43.8091344 212.439777,43.5190957 212.595744,43.3185079 L212.63828,43.2703374 L215.855584,40.0526316 L212.63828,36.8349257 C212.453956,36.6506017 212.439777,36.360563 212.595744,36.1599752 L212.63828,36.1118047 Z" id="路径" fill="#40A9FF" mask="url(#mask-2)"></path>
                <text font-size="11.2491228" line-spacing="17.677193" fill="#40A9FF">
                    <tspan x="104.822807" y="44.1871345">2020年3月</tspan>
                </text>
            </g>
        </g>
    </g>
</svg>