<?xml version="1.0" encoding="UTF-8"?>
<svg width="265px" height="180px" viewBox="0 0 265 180" version="1.1" xmlns="http://www.w3.org/2000/svg" xmlns:xlink="http://www.w3.org/1999/xlink">
    <title>datepicker</title>
    <g id="页面-1" stroke="none" stroke-width="1" fill="none" fill-rule="evenodd">
        <g id="组件图例" transform="translate(-1525.000000, -814.000000)">
            <g id="datepicker" transform="translate(1525.000000, 814.000000)">
                <rect id="矩形" stroke="#C5E5FF" fill="#FFFFFF" x="18" y="55" width="229" height="229" rx="3.21403509"></rect>
                <rect id="矩形" stroke="#40A9FF" stroke-width="2" fill="#FFFFFF" x="19" y="20" width="227" height="26" rx="4"></rect>
                <text id="输入文本" font-size="14" fill="#40A9FF">
                    <tspan x="53" y="38">2022-03-22</tspan>
                </text>
                <path d="M37,39.3636364 C40.5145393,39.3636364 43.3636364,36.5145393 43.3636364,33 C43.3636364,29.4854607 40.5145393,26.6363636 37,26.6363636 C33.4854607,26.6363636 30.6363636,29.4854607 30.6363636,33 C30.6363636,36.5145393 33.4854607,39.3636364 37,39.3636364 Z M37,29.1818182 L37,33 L39.5454545,34.2727273" id="椭圆形-2" stroke="#40A9FF" stroke-width="1.5" stroke-linecap="round" stroke-linejoin="round" mask="url(#mask-2)"></path>
                <text id="输入文本" font-size="10.445614" fill="#40A9FF">
                    <tspan x="211.640391" y="179.526316">15</tspan>
                </text>
                <text id="输入文本" font-size="10.445614" fill="#40A9FF">
                    <tspan x="183.517584" y="179.526316">14</tspan>
                </text>
                <text id="输入文本" font-size="10.445614" fill="#40A9FF">
                    <tspan x="155.394777" y="179.526316">13</tspan>
                </text>
                <text id="输入文本" font-size="10.445614" fill="#40A9FF">
                    <tspan x="127.27197" y="179.526316">12</tspan>
                </text>
                <text id="输入文本" font-size="10.445614" fill="#40A9FF">
                    <tspan x="100.188502" y="179.526316">11</tspan>
                </text>
                <text id="输入文本" font-size="10.445614" fill="#40A9FF">
                    <tspan x="71.0263561" y="179.526316">10</tspan>
                </text>
                <text id="输入文本" font-size="10.445614" fill="#40A9FF">
                    <tspan x="44.9978947" y="179.526316">9</tspan>
                </text>
                <text id="输入文本" font-size="10.445614" fill="#40A9FF">
                    <tspan x="185.61193" y="155.421053">8</tspan>
                </text>
                <text id="输入文本" font-size="10.445614" fill="#40A9FF">
                    <tspan x="157.765932" y="155.421053">7</tspan>
                </text>
                <text id="输入文本" font-size="10.445614" fill="#40A9FF">
                    <tspan x="129.366316" y="155.421053">6</tspan>
                </text>
                <text id="输入文本" font-size="10.445614" fill="#40A9FF">
                    <tspan x="101.243509" y="155.421053">5</tspan>
                </text>
                <text id="输入文本" font-size="10.445614" fill="#40A9FF">
                    <tspan x="73.1207018" y="155.421053">4</tspan>
                </text>
                <text id="输入文本" font-size="10.445614" fill="#40A9FF">
                    <tspan x="44.9978947" y="155.421053">3</tspan>
                </text>
                <text id="输入文本" font-size="10.445614" fill="#40A9FF">
                    <tspan x="213.734737" y="155.421053">9</tspan>
                </text>
                <text id="输入文本" font-size="10.445614" fill="#40A9FF">
                    <tspan x="186.774075" y="131.315789">1</tspan>
                </text>
                <text id="输入文本" font-size="10.445614" fill="#40A9FF">
                    <tspan x="213.734737" y="131.315789">2</tspan>
                </text>
                <text id="输入文本" opacity="0.2" font-size="10.445614" fill="#40A9FF">
                    <tspan x="156.517584" y="131.315789">31</tspan>
                </text>
                <text id="输入文本" opacity="0.2" font-size="10.445614" fill="#40A9FF">
                    <tspan x="127.355439" y="131.315789">30</tspan>
                </text>
                <text id="输入文本" opacity="0.2" font-size="10.445614" fill="#40A9FF">
                    <tspan x="99.2326316" y="131.315789">29</tspan>
                </text>
                <text id="输入文本" opacity="0.2" font-size="10.445614" fill="#40A9FF">
                    <tspan x="71.1098246" y="131.315789">28</tspan>
                </text>
                <text id="输入文本" opacity="0.2" font-size="10.445614" fill="#40A9FF">
                    <tspan x="43.2638263" y="131.315789">27</tspan>
                </text>
                <text id="输入文本" opacity="0.5" font-size="10.445614" fill="#40A9FF">
                    <tspan x="211.645614" y="107.210526">六</tspan>
                </text>
                <text id="输入文本" opacity="0.5" font-size="10.445614" fill="#40A9FF">
                    <tspan x="183.522807" y="107.210526">五</tspan>
                </text>
                <text id="输入文本" opacity="0.5" font-size="10.445614" fill="#40A9FF">
                    <tspan x="155.4" y="107.210526">四</tspan>
                </text>
                <text id="输入文本" opacity="0.5" font-size="10.445614" fill="#40A9FF">
                    <tspan x="127.277193" y="107.210526">三</tspan>
                </text>
                <text id="输入文本" opacity="0.5" font-size="10.445614" fill="#40A9FF">
                    <tspan x="99.154386" y="107.210526">二</tspan>
                </text>
                <text id="输入文本" opacity="0.5" font-size="10.445614" fill="#40A9FF">
                    <tspan x="71.0315789" y="107.210526">一</tspan>
                </text>
                <text id="输入文本" opacity="0.5" font-size="10.445614" fill="#40A9FF">
                    <tspan x="42.9087719" y="107.210526">日</tspan>
                </text>
                <path d="M51.5684236,71.1644363 C51.7681079,70.964752 52.0918602,70.964752 52.2915446,71.1644363 C52.4758686,71.3487603 52.4900473,71.638799 52.3340809,71.8393869 L52.2915446,71.8875573 L49.0742408,75.1052632 L52.2915446,78.322969 C52.4758686,78.507293 52.4900473,78.7973317 52.3340809,78.9979196 L52.2915446,79.04609 C52.1072205,79.230414 51.8171818,79.2445928 51.616594,79.0886263 L51.5684236,79.04609 L47.9891572,75.4668237 C47.8048332,75.2824996 47.7906544,74.9924609 47.9466209,74.7918731 L47.9891572,74.7437027 L51.5684236,71.1644363 Z" id="路径" fill="#40A9FF" mask="url(#mask-2)"></path>
                <path d="M212.708455,71.1644363 C212.892779,70.9801123 213.182818,70.9659335 213.383406,71.1219 L213.431576,71.1644363 L217.010843,74.7437027 C217.195167,74.9280267 217.209346,75.2180654 217.053379,75.4186532 L217.010843,75.4668237 L213.431576,79.04609 C213.231892,79.2457744 212.90814,79.2457744 212.708455,79.04609 C212.524131,78.861766 212.509953,78.5717273 212.665919,78.3711395 L212.708455,78.322969 L215.925759,75.1052632 L212.708455,71.8875573 C212.524131,71.7032333 212.509953,71.4131946 212.665919,71.2126068 L212.708455,71.1644363 Z" id="路径" fill="#40A9FF" mask="url(#mask-2)"></path>
                <text id="输入文本" font-size="11.2491228" line-spacing="17.677193" fill="#40A9FF">
                    <tspan x="106.118776" y="78.2397661">二月 2020</tspan>
                </text>
            </g>
        </g>
    </g>
</svg>