<?xml version="1.0" encoding="UTF-8"?>
<svg width="265px" height="180px" viewBox="0 0 265 180" version="1.1" xmlns="http://www.w3.org/2000/svg" xmlns:xlink="http://www.w3.org/1999/xlink">
    <title>dialog</title>
    <defs>
        <rect id="path-1" x="0" y="0" width="265" height="180" rx="2"></rect>
    </defs>
    <g id="页面-1" stroke="none" stroke-width="1" fill="none" fill-rule="evenodd">
        <g id="组件图例" transform="translate(-478.000000, -3010.000000)">
            <g id="dialog" transform="translate(478.000000, 3010.000000)">
                <rect id="选择背景色" stroke="#C5E5FF" fill="#FFFFFF" x="22" y="22" width="221" height="136" rx="6"></rect>
                <rect id="选择背景色" fill="#40A9FF" x="181" y="118" width="46" height="24" rx="4"></rect>
                <text id="输入文本" font-size="12" fill="#FFFFFF">
                    <tspan x="195.258" y="134">OK</tspan>
                </text>
                <rect id="选择背景色" stroke="#C5E5FF" fill="#FFFFFF" x="116" y="118" width="57" height="24" rx="4"></rect>
                <text id="输入文本" font-size="12" fill="#40A9FF">
                    <tspan x="125.402" y="134">Cancel</tspan>
                </text>
                <path d="M28,22 L237,22 C240.313708,22 243,24.6862915 243,28 L243,54 L243,54 L22,54 L22,28 C22,24.6862915 24.6862915,22 28,22 Z" id="选择背景色" stroke="#C5E5FF" fill-opacity="0.49653252" fill="#E5F6FF"></path>
                <path d="M216.253663,33.3607211 L216.313613,33.4136593 L220,37.0995455 L223.686387,33.4136593 C223.934902,33.1651439 224.337825,33.1651439 224.586341,33.4136593 C224.81574,33.6430582 224.833386,34.0040234 224.639279,34.2536633 L224.586341,34.3136134 L220.900455,38 L224.586341,41.6863866 C224.834856,41.9349021 224.834856,42.3378252 224.586341,42.5863407 C224.356942,42.8157396 223.995977,42.8333856 223.746337,42.6392789 L223.686387,42.5863407 L220,38.9004545 L216.313613,42.5863407 C216.065098,42.8348561 215.662175,42.8348561 215.413659,42.5863407 C215.18426,42.3569418 215.166614,41.9959766 215.360721,41.7463367 L215.413659,41.6863866 L219.099545,38 L215.413659,34.3136134 C215.165144,34.0650979 215.165144,33.6621748 215.413659,33.4136593 C215.623942,33.203377 215.944776,33.1710259 216.189075,33.3166059 L216.253663,33.3607211 Z" id="路径" fill="#40A9FF"></path>
                <text id="输入文本" font-size="14" fill="#40A9FF">
                    <tspan x="39" y="43">Tittle</tspan>
                </text>
                <rect id="矩形备份-2" fill="#40A9FF" opacity="0.100391933" x="38" y="70" width="189" height="12"></rect>
                <rect id="矩形备份-4" fill="#40A9FF" opacity="0.100391933" x="38" y="90" width="159" height="12"></rect>
            </g>
        </g>
    </g>
</svg>