<?xml version="1.0" encoding="UTF-8"?>
<svg width="265px" height="180px" viewBox="0 0 265 180" version="1.1" xmlns="http://www.w3.org/2000/svg" xmlns:xlink="http://www.w3.org/1999/xlink">
    <title>form</title>
    <g id="页面-1" stroke="none" stroke-width="1" fill="none" fill-rule="evenodd">
        <g id="组件图例" transform="translate(-478.000000, -1124.000000)">
            <g id="form" transform="translate(478.000000, 1124.000000)">
                <rect id="选择背景色" stroke="#C5E5FF" fill="#FFFFFF" x="89" y="42" width="140" height="24" rx="4"></rect>
                <rect id="选择背景色" stroke="#C5E5FF" fill="#FFFFFF" x="89" y="78" width="140" height="24" rx="4"></rect>
                <rect id="选择背景色" stroke="#C5E5FF" fill="#FFFFFF" x="89" y="114" width="140" height="24" rx="4"></rect>
                <path d="M210.796124,87.7052145 C210.992751,87.5085869 211.30215,87.4934617 211.516127,87.6598389 L211.567513,87.7052145 L215,91.1372727 L218.432487,87.7052145 C218.629115,87.5085869 218.938514,87.4934617 219.152491,87.6598389 L219.203876,87.7052145 C219.400504,87.9018421 219.415629,88.2112409 219.249252,88.4252179 L219.203876,88.4766037 L215.385695,92.2947855 C215.189067,92.4914131 214.879668,92.5065383 214.665691,92.3401611 L214.614305,92.2947855 L210.796124,88.4766037 C210.58311,88.2635904 210.58311,87.9182277 210.796124,87.7052145 Z" id="路径" fill="#40A9FF"></path>
                <path d="M98.6363636,121.636364 L107.363636,121.636364 C107.966129,121.636364 108.454545,122.12478 108.454545,122.727273 L108.454545,130.363636 C108.454545,130.966129 107.966129,131.454545 107.363636,131.454545 L98.6363636,131.454545 C98.0338712,131.454545 97.5454545,130.966129 97.5454545,130.363636 L97.5454545,122.727273 C97.5454545,122.12478 98.0338712,121.636364 98.6363636,121.636364 Z M100.272727,120.545455 L100.272727,122.727273 M105.727273,120.545455 L105.727273,122.727273 M97.5454545,124.363636 L108.454545,124.363636 M98.5454545,121.636364 L107.454545,121.636364 C108.00683,121.636364 108.454545,122.084079 108.454545,122.636364 L108.454545,124.363636 L108.454545,124.363636 L97.5454545,124.363636 L97.5454545,122.636364 C97.5454545,122.084079 97.9931698,121.636364 98.5454545,121.636364 Z" id="形状结合" stroke="#40A9FF" stroke-linecap="round" stroke-linejoin="round"></path>
                <text id="输入文本" font-size="12" fill="#40A9FF">
                    <tspan x="98" y="58">text</tspan>
                </text>
                <text id="输入文本" font-size="12" fill="#40A9FF">
                    <tspan x="98" y="94">China</tspan>
                </text>
                <text id="输入文本" font-size="12" fill="#40A9FF">
                    <tspan x="118" y="130">2022-03-22</tspan>
                </text>
                <text id="输入文本" font-size="14" fill="#40A9FF">
                    <tspan x="40.368" y="58">Name</tspan>
                </text>
                <text id="输入文本" font-size="14" fill="#40A9FF">
                    <tspan x="52.828" y="94">Site</tspan>
                </text>
                <text id="输入文本" font-size="14" fill="#40A9FF">
                    <tspan x="46.01" y="130">Time</tspan>
                </text>
            </g>
        </g>
    </g>
</svg>