<?xml version="1.0" encoding="UTF-8"?>
<svg width="265px" height="180px" viewBox="0 0 265 180" version="1.1" xmlns="http://www.w3.org/2000/svg" xmlns:xlink="http://www.w3.org/1999/xlink">
    <title>group</title>
    <g id="页面-1" stroke="none" stroke-width="1" fill="none" fill-rule="evenodd">
        <g id="组件图例" transform="translate(-478.000000, -194.000000)">
            <g id="group" transform="translate(478.000000, 194.000000)">
                <path d="M140.5,102.5 L140.5,129.5 L34,129.5 C33.0335017,129.5 32.1585017,129.108249 31.5251263,128.474874 C30.8917508,127.841498 30.5,126.966498 30.5,126 L30.5,126 L30.5,106 C30.5,105.033502 30.8917508,104.158502 31.5251263,103.525126 C32.1585017,102.891751 33.0335017,102.5 34,102.5 L34,102.5 L140.5,102.5 Z" id="选择背景色" stroke="#40A9FF" fill="#FFFFFF"></path>
                <text id="输入文本" font-size="12" fill="#84A4F6">
                    <tspan x="59" y="120">2022-03-22</tspan>
                </text>
                <path d="M39.6363636,111.636364 L48.3636364,111.636364 C48.9661288,111.636364 49.4545455,112.12478 49.4545455,112.727273 L49.4545455,120.363636 C49.4545455,120.966129 48.9661288,121.454545 48.3636364,121.454545 L39.6363636,121.454545 C39.0338712,121.454545 38.5454545,120.966129 38.5454545,120.363636 L38.5454545,112.727273 C38.5454545,112.12478 39.0338712,111.636364 39.6363636,111.636364 Z M41.2727273,110.545455 L41.2727273,112.727273 M46.7272727,110.545455 L46.7272727,112.727273 M38.5454545,114.363636 L49.4545455,114.363636 M39.9090909,111.636364 L48.0909091,111.636364 C48.8440247,111.636364 49.4545455,112.246884 49.4545455,113 L49.4545455,114.363636 L49.4545455,114.363636 L38.5454545,114.363636 L38.5454545,113 C38.5454545,112.246884 39.1559753,111.636364 39.9090909,111.636364 Z" id="形状结合" stroke="#3699FF" stroke-linecap="round" stroke-linejoin="round"></path>
                <path d="M232,102.5 C232.966498,102.5 233.841498,102.891751 234.474874,103.525126 C235.108249,104.158502 235.5,105.033502 235.5,106 L235.5,106 L235.5,126 C235.5,126.966498 235.108249,127.841498 234.474874,128.474874 C233.841498,129.108249 232.966498,129.5 232,129.5 L232,129.5 L140.5,129.5 L140.5,102.5 Z" id="选择背景色" stroke="#40A9FF" fill="#FFFFFF"></path>
                <text id="输入文本" font-size="12" fill="#84A4F6">
                    <tspan x="169" y="120">12:00:00</tspan>
                </text>
                <path d="M154,121.454545 C157.012462,121.454545 159.454545,119.012462 159.454545,116 C159.454545,112.987538 157.012462,110.545455 154,110.545455 C150.987538,110.545455 148.545455,112.987538 148.545455,116 C148.545455,119.012462 150.987538,121.454545 154,121.454545 Z M154,112.727273 L154,116 L156.181818,117.090909" id="椭圆形-2" stroke="#3699FF" stroke-linecap="round" stroke-linejoin="round"></path>
                <path d="M90.5,50.5 L90.5,77.5 L44,77.5 C40.2720779,77.5 36.8970779,75.988961 34.4540585,73.5459415 C32.011039,71.1029221 30.5,67.7279221 30.5,64 C30.5,60.2720779 32.011039,56.8970779 34.4540585,54.4540585 C36.8970779,52.011039 40.2720779,50.5 44,50.5 L44,50.5 L90.5,50.5 Z" id="选择背景色" stroke="#40A9FF" fill="#FFFFFF"></path>
                <text id="输入文本" font-size="14" fill="#84A4F6">
                    <tspan x="47.403" y="69.5">Left</tspan>
                </text>
                <rect id="选择背景色" stroke="#40A9FF" fill="#FFFFFF" x="90.5" y="50.5" width="77" height="27"></rect>
                <text id="输入文本" font-size="14" fill="#84A4F6">
                    <tspan x="107.181" y="69.5">Centre</tspan>
                </text>
                <path d="M222,50.5 C225.727922,50.5 229.102922,52.011039 231.545942,54.4540585 C233.988961,56.8970779 235.5,60.2720779 235.5,64 C235.5,67.7279221 233.988961,71.1029221 231.545942,73.5459415 C229.102922,75.988961 225.727922,77.5 222,77.5 L222,77.5 L167.5,77.5 L167.5,50.5 Z" id="选择背景色" stroke="#40A9FF" fill="#FFFFFF"></path>
                <text id="输入文本" font-size="14" fill="#84A4F6">
                    <tspan x="184.462" y="69.5">Right</tspan>
                </text>
            </g>
        </g>
    </g>
</svg>