<?xml version="1.0" encoding="UTF-8"?>
<svg width="265px" height="180px" viewBox="0 0 265 180" version="1.1" xmlns="http://www.w3.org/2000/svg" xmlns:xlink="http://www.w3.org/1999/xlink">
    <title>infinitescroll</title>
    <defs>
        <rect id="path-1" x="0" y="0" width="265" height="180" rx="2"></rect>
    </defs>
    <g id="页面-1" stroke="none" stroke-width="1" fill="none" fill-rule="evenodd">
        <g id="组件图例" transform="translate(-1525.000000, -2080.000000)">
            <g id="infinitescroll" transform="translate(1525.000000, 2080.000000)">
                <rect id="选择背景色" stroke="#C5E5FF" fill="#FFFFFF" x="32" y="18" width="201" height="144" rx="4"></rect>
                <rect id="选择背景色" fill="#E5F6FF" x="224" y="24" width="3" height="132" rx="1.5"></rect>
                <rect id="选择背景色" fill="#40A9FF" x="224" y="60" width="3" height="40" rx="1.5"></rect>
                <rect id="选择背景色" fill="#E5F6FF" x="44" y="30" width="174" height="16" rx="2"></rect>
                <rect id="选择背景色" fill="#E5F6FF" x="44" y="51" width="174" height="16" rx="2"></rect>
                <rect id="选择背景色" fill="#E5F6FF" x="44" y="72" width="174" height="16" rx="2"></rect>
                <rect id="选择背景色" fill="#E5F6FF" x="44" y="93" width="174" height="16" rx="2"></rect>
                <rect id="选择背景色" fill="#E5F6FF" x="44" y="114" width="174" height="16" rx="2"></rect>
                <text font-size="12" fill="#40A9FF">
                    <tspan x="127" y="150">Loading</tspan>
                </text>
                <rect id="选择背景色" x="97" y="129" width="32" height="31.8315789" rx="8.88888889"></rect>
                <path d="M113,137.123684 C108.673769,137.123684 105.166667,140.612329 105.166667,144.915789 C105.166667,149.21925 108.673769,152.707895 113,152.707895 C117.326231,152.707895 120.833333,149.21925 120.833333,144.915789 C120.833333,140.612329 117.326231,137.123684 113,137.123684 Z M113,138.118421 C116.773946,138.118421 119.833333,141.161707 119.833333,144.915789 C119.833333,148.669872 116.773946,151.713158 113,151.713158 C109.226054,151.713158 106.166667,148.669872 106.166667,144.915789 C106.166667,141.161707 109.226054,138.118421 113,138.118421 Z" id="椭圆形" fill-opacity="0.150725251" fill="#2C80FF" fill-rule="nonzero"></path>
                <path d="M120.333333,144.418421 C120.609476,144.418421 120.833333,144.6411 120.833333,144.915789 C120.833333,149.21925 117.326231,152.707895 113,152.707895 C112.723858,152.707895 112.5,152.485215 112.5,152.210526 C112.5,151.935837 112.723858,151.713158 113,151.713158 C116.773946,151.713158 119.833333,148.669872 119.833333,144.915789 C119.833333,144.6411 120.057191,144.418421 120.333333,144.418421 Z" id="路径" fill="#40A9FF" fill-rule="nonzero"></path>
            </g>
        </g>
    </g>
</svg>