<?xml version="1.0" encoding="UTF-8"?>
<svg width="265px" height="180px" viewBox="0 0 265 180" version="1.1" xmlns="http://www.w3.org/2000/svg" xmlns:xlink="http://www.w3.org/1999/xlink">
    <title>list</title>
    <defs>
        <rect id="path-1" x="0" y="0" width="265" height="180" rx="2"></rect>
    </defs>
    <g id="页面-1" stroke="none" stroke-width="1" fill="none" fill-rule="evenodd">
        <g id="组件图例" transform="translate(-129.000000, -3630.000000)">
            <g id="list" transform="translate(129.000000, 3630.000000)">
                <rect id="选择背景色" stroke="#C5E5FF" fill="#FFFFFF" x="32" y="24" width="201" height="28" rx="4"></rect>
                <path d="M209,37 C209.552285,37 210,37.4477153 210,38 C210,38.5522847 209.552285,39 209,39 C208.447715,39 208,38.5522847 208,38 C208,37.4477153 208.447715,37 209,37 Z M213,37 C213.552285,37 214,37.4477153 214,38 C214,38.5522847 213.552285,39 213,39 C212.447715,39 212,38.5522847 212,38 C212,37.4477153 212.447715,37 213,37 Z M217,37 C217.552285,37 218,37.4477153 218,38 C218,38.5522847 217.552285,39 217,39 C216.447715,39 216,38.5522847 216,38 C216,37.4477153 216.447715,37 217,37 Z" id="color" fill="#40A9FF"></path>
                <text font-size="12" fill="#40A9FF">
                    <tspan x="67" y="42">Menu</tspan>
                </text>
                <path d="M47.1818182,31.6363636 C48.5876339,31.6363636 49.7272727,32.7760025 49.7272727,34.1818182 L49.7272727,36.7272727 L47.1818182,36.7272727 C45.7760025,36.7272727 44.6363636,35.5876339 44.6363636,34.1818182 C44.6363636,32.7760025 45.7760025,31.6363636 47.1818182,31.6363636 Z M54.8181818,31.6363636 C56.2239975,31.6363636 57.3636364,32.7760025 57.3636364,34.1818182 C57.3636364,35.5876339 56.2239975,36.7272727 54.8181818,36.7272727 L52.2727273,36.7272727 L52.2727273,34.1818182 C52.2727273,32.7760025 53.4123661,31.6363636 54.8181818,31.6363636 Z M47.1818182,39.2727273 L49.7272727,39.2727273 L49.7272727,41.8181818 C49.7272727,43.2239975 48.5876339,44.3636364 47.1818182,44.3636364 C45.7760025,44.3636364 44.6363636,43.2239975 44.6363636,41.8181818 C44.6363636,40.4123661 45.7760025,39.2727273 47.1818182,39.2727273 Z M52.2727273,39.2727273 L54.8181818,39.2727273 C56.2239975,39.2727273 57.3636364,40.4123661 57.3636364,41.8181818 C57.3636364,43.2239975 56.2239975,44.3636364 54.8181818,44.3636364 C53.4123661,44.3636364 52.2727273,43.2239975 52.2727273,41.8181818 L52.2727273,39.2727273 Z" id="形状结合" stroke="#40A9FF" fill-opacity="0.2" fill="#3699FF" stroke-linecap="round" stroke-linejoin="round"></path>
                <rect id="选择背景色" stroke="#C5E5FF" fill="#FFFFFF" x="32" y="58" width="201" height="28" rx="4"></rect>
                <path d="M209,71 C209.552285,71 210,71.4477153 210,72 C210,72.5522847 209.552285,73 209,73 C208.447715,73 208,72.5522847 208,72 C208,71.4477153 208.447715,71 209,71 Z M213,71 C213.552285,71 214,71.4477153 214,72 C214,72.5522847 213.552285,73 213,73 C212.447715,73 212,72.5522847 212,72 C212,71.4477153 212.447715,71 213,71 Z M217,71 C217.552285,71 218,71.4477153 218,72 C218,72.5522847 217.552285,73 217,73 C216.447715,73 216,72.5522847 216,72 C216,71.4477153 216.447715,71 217,71 Z" id="color" fill="#40A9FF"></path>
                <text font-size="12" fill="#40A9FF">
                    <tspan x="67" y="76">Calendar</tspan>
                </text>
                <path d="M45.9090909,66.9090909 L56.0909091,66.9090909 C56.793817,66.9090909 57.3636364,67.4789103 57.3636364,68.1818182 L57.3636364,77.0909091 C57.3636364,77.793817 56.793817,78.3636364 56.0909091,78.3636364 L45.9090909,78.3636364 C45.206183,78.3636364 44.6363636,77.793817 44.6363636,77.0909091 L44.6363636,68.1818182 C44.6363636,67.4789103 45.206183,66.9090909 45.9090909,66.9090909 Z M47.8181818,65.6363636 L47.8181818,68.1818182 M54.1818182,65.6363636 L54.1818182,68.1818182 M44.6363636,70.0909091 L57.3636364,70.0909091 M46.6363636,66.9090909 L55.3636364,66.9090909 C56.4682059,66.9090909 57.3636364,67.8045214 57.3636364,68.9090909 L57.3636364,70.0909091 L57.3636364,70.0909091 L44.6363636,70.0909091 L44.6363636,68.9090909 C44.6363636,67.8045214 45.5317941,66.9090909 46.6363636,66.9090909 Z" id="形状结合" stroke="#40A9FF" fill-opacity="0.2" fill="#3699FF" stroke-linecap="round" stroke-linejoin="round"></path>
                <rect id="选择背景色" stroke="#C5E5FF" fill="#FFFFFF" x="32" y="92" width="201" height="28" rx="4"></rect>
                <path d="M209,105 C209.552285,105 210,105.447715 210,106 C210,106.552285 209.552285,107 209,107 C208.447715,107 208,106.552285 208,106 C208,105.447715 208.447715,105 209,105 Z M213,105 C213.552285,105 214,105.447715 214,106 C214,106.552285 213.552285,107 213,107 C212.447715,107 212,106.552285 212,106 C212,105.447715 212.447715,105 213,105 Z M217,105 C217.552285,105 218,105.447715 218,106 C218,106.552285 217.552285,107 217,107 C216.447715,107 216,106.552285 216,106 C216,105.447715 216.447715,105 217,105 Z" id="color" fill="#40A9FF"></path>
                <text font-size="12" fill="#40A9FF">
                    <tspan x="67" y="110">Camera</tspan>
                </text>
                <path d="M45.9090909,102.181818 L47.1818182,102.181818 L48.4545455,100.272727 L53.5454545,100.272727 L54.8181818,102.181818 L56.0909091,102.181818 C56.793817,102.181818 57.3636364,102.751638 57.3636364,103.454545 L57.3636364,110.454545 C57.3636364,111.157453 56.793817,111.727273 56.0909091,111.727273 L45.9090909,111.727273 C45.206183,111.727273 44.6363636,111.157453 44.6363636,110.454545 L44.6363636,103.454545 C44.6363636,102.751638 45.206183,102.181818 45.9090909,102.181818 Z M51,109.181818 C52.4058157,109.181818 53.5454545,108.042179 53.5454545,106.636364 C53.5454545,105.230548 52.4058157,104.090909 51,104.090909 C49.5941843,104.090909 48.4545455,105.230548 48.4545455,106.636364 C48.4545455,108.042179 49.5941843,109.181818 51,109.181818 Z" id="形状结合" stroke="#40A9FF" fill-opacity="0.2" fill="#3699FF" stroke-linecap="round" stroke-linejoin="round"></path>
                <rect id="选择背景色" stroke="#C5E5FF" fill="#FFFFFF" x="32" y="126" width="201" height="28" rx="4"></rect>
                <path d="M209,139 C209.552285,139 210,139.447715 210,140 C210,140.552285 209.552285,141 209,141 C208.447715,141 208,140.552285 208,140 C208,139.447715 208.447715,139 209,139 Z M213,139 C213.552285,139 214,139.447715 214,140 C214,140.552285 213.552285,141 213,141 C212.447715,141 212,140.552285 212,140 C212,139.447715 212.447715,139 213,139 Z M217,139 C217.552285,139 218,139.447715 218,140 C218,140.552285 217.552285,141 217,141 C216.447715,141 216,140.552285 216,140 C216,139.447715 216.447715,139 217,139 Z" id="color" fill="#40A9FF"></path>
                <text font-size="12" fill="#40A9FF">
                    <tspan x="67" y="144">Computer</tspan>
                </text>
                <path d="M50.0454545,143.818182 L51.9545455,143.818182 L51.9545455,146.363636 L50.0454545,146.363636 L50.0454545,143.818182 Z M45.9090909,134.272727 L56.0909091,134.272727 C56.793817,134.272727 57.3636364,134.923949 57.3636364,135.727273 L57.3636364,142.363636 C57.3636364,143.16696 56.793817,143.818182 56.0909091,143.818182 L45.9090909,143.818182 C45.206183,143.818182 44.6363636,143.16696 44.6363636,142.363636 L44.6363636,135.727273 C44.6363636,134.923949 45.206183,134.272727 45.9090909,134.272727 Z M53.5454545,146.363636 L48.4545455,146.363636" id="形状结合" stroke="#40A9FF" fill-opacity="0.2" fill="#3699FF" stroke-linecap="round" stroke-linejoin="round"></path>
                <rect id="选择背景色" stroke="#C5E5FF" fill="#FFFFFF" x="32" y="160" width="201" height="28" rx="4"></rect>
                <path d="M209,173 C209.552285,173 210,173.447715 210,174 C210,174.552285 209.552285,175 209,175 C208.447715,175 208,174.552285 208,174 C208,173.447715 208.447715,173 209,173 Z M213,173 C213.552285,173 214,173.447715 214,174 C214,174.552285 213.552285,175 213,175 C212.447715,175 212,174.552285 212,174 C212,173.447715 212.447715,173 213,173 Z M217,173 C217.552285,173 218,173.447715 218,174 C218,174.552285 217.552285,175 217,175 C216.447715,175 216,174.552285 216,174 C216,173.447715 216.447715,173 217,173 Z" id="color" fill="#40A9FF"></path>
                <text font-size="12" fill="#40A9FF">
                    <tspan x="67" y="178">Inbox</tspan>
                </text>
                <path d="M48.0730462,167.636364 L53.9269538,167.636364 C54.8288559,167.636364 55.6191753,168.240006 55.8564814,169.110129 L57.293164,174.377965 C57.3399368,174.549465 57.3636364,174.726436 57.3636364,174.9042 L57.3636364,178.363636 C57.3636364,179.468206 56.4682059,180.363636 55.3636364,180.363636 L46.6363636,180.363636 C45.5317941,180.363636 44.6363636,179.468206 44.6363636,178.363636 L44.6363636,174.9042 C44.6363636,174.726436 44.6600632,174.549465 44.706836,174.377965 L46.1435186,169.110129 C46.3808247,168.240006 47.1711441,167.636364 48.0730462,167.636364 Z M45.2727273,175.272727 L48.3794329,175.272727 C48.781931,175.272727 49.1525412,175.482642 49.3605515,175.821686 L49.4090909,175.909091 C49.6040937,176.299097 50.0027093,176.545455 50.4387489,176.545455 L51.5612511,176.545455 C51.9637492,176.545455 52.3343593,176.33554 52.5423697,175.996496 L52.5909091,175.909091 C52.7859119,175.519085 53.1845275,175.272727 53.6205671,175.272727 L56.7272727,175.272727 C57.0787267,175.272727 57.3636364,175.557637 57.3636364,175.909091 L57.3636364,179.090909 C57.3636364,179.793817 56.793817,180.363636 56.0909091,180.363636 L45.9090909,180.363636 C45.206183,180.363636 44.6363636,179.793817 44.6363636,179.090909 L44.6363636,175.909091 C44.6363636,175.557637 44.9212733,175.272727 45.2727273,175.272727 Z" id="形状结合" stroke="#40A9FF" fill-opacity="0.2" fill="#3699FF" stroke-linecap="round" stroke-linejoin="round"></path>
            </g>
        </g>
    </g>
</svg>