<?xml version="1.0" encoding="UTF-8"?>
<svg width="265px" height="180px" viewBox="0 0 265 180" version="1.1" xmlns="http://www.w3.org/2000/svg" xmlns:xlink="http://www.w3.org/1999/xlink">
    <title>messagebox</title>
    <g id="页面-1" stroke="none" stroke-width="1" fill="none" fill-rule="evenodd">
        <g id="组件图例" transform="translate(-1176.000000, -3010.000000)">
            <g id="messagebox" transform="translate(1176.000000, 3010.000000)">
                <rect id="选择背景色" stroke="#C5E5FF" fill="#FFFFFF" x="27" y="26" width="211" height="128" rx="6"></rect>
                <rect id="选择背景色" fill="#40A9FF" x="137" y="114" width="57" height="24" rx="4"></rect>
                <text id="输入文本" font-size="12" fill="#FFFFFF">
                    <tspan x="156.758" y="130">OK</tspan>
                </text>
                <rect id="选择背景色" stroke="#C5E5FF" fill="#FFFFFF" x="72" y="114" width="57" height="24" rx="4"></rect>
                <text id="输入文本" font-size="12" fill="#40A9FF">
                    <tspan x="81.402" y="130">Cancel</tspan>
                </text>
                <path d="M33,26 L232,26 C235.313708,26 238,28.6862915 238,32 L238,58 L238,58 L27,58 L27,32 C27,28.6862915 29.6862915,26 33,26 Z" id="选择背景色"></path>
                <path d="M211.253663,37.3607211 L211.313613,37.4136593 L215,41.0995455 L218.686387,37.4136593 C218.934902,37.1651439 219.337825,37.1651439 219.586341,37.4136593 C219.81574,37.6430582 219.833386,38.0040234 219.639279,38.2536633 L219.586341,38.3136134 L215.900455,42 L219.586341,45.6863866 C219.834856,45.9349021 219.834856,46.3378252 219.586341,46.5863407 C219.356942,46.8157396 218.995977,46.8333856 218.746337,46.6392789 L218.686387,46.5863407 L215,42.9004545 L211.313613,46.5863407 C211.065098,46.8348561 210.662175,46.8348561 210.413659,46.5863407 C210.18426,46.3569418 210.166614,45.9959766 210.360721,45.7463367 L210.413659,45.6863866 L214.099545,42 L210.413659,38.3136134 C210.165144,38.0650979 210.165144,37.6621748 210.413659,37.4136593 C210.623942,37.203377 210.944776,37.1710259 211.189075,37.3166059 L211.253663,37.3607211 Z" id="路径" fill="#40A9FF"></path>
                <text id="输入文本" font-size="14" fill="#40A9FF">
                    <tspan x="44" y="47">Tittle</tspan>
                </text>
                <rect id="矩形备份-2" fill="#40A9FF" opacity="0.100391933" x="43" y="66" width="179" height="12"></rect>
                <rect id="矩形备份-4" fill="#40A9FF" opacity="0.100391933" x="43" y="86" width="150.587302" height="12"></rect>
            </g>
        </g>
    </g>
</svg>