<?xml version="1.0" encoding="UTF-8"?>
<svg width="265px" height="180px" viewBox="0 0 265 180" version="1.1" xmlns="http://www.w3.org/2000/svg" xmlns:xlink="http://www.w3.org/1999/xlink">
    <title>scrollbar</title>
    <g id="页面-1" stroke="none" stroke-width="1" fill="none" fill-rule="evenodd">
        <g id="组件图例" transform="translate(-1525.000000, -194.000000)">
            <g id="scrollbar" transform="translate(1525.000000, 194.000000)">
                <rect id="矩形备份-2" fill="#40A9FF" opacity="0.100000001" x="24" y="20" width="204" height="24" rx="4"></rect>
                <rect id="矩形备份-20" fill="#40A9FF" opacity="0.100000001" x="24" y="49" width="204" height="24" rx="4"></rect>
                <rect id="矩形备份-21" fill="#40A9FF" opacity="0.100000001" x="24" y="78" width="204" height="24" rx="4"></rect>
                <rect id="矩形备份-22" fill="#40A9FF" opacity="0.100000001" x="24" y="107" width="204" height="24" rx="4"></rect>
                <rect id="矩形备份-23" fill="#40A9FF" opacity="0.100000001" x="24" y="136" width="204" height="24" rx="4"></rect>
                <rect id="选择背景色" fill="#E5F6FF" x="236" y="20" width="5" height="140" rx="2.5"></rect>
                <path d="M238.5,20 C239.880712,20 241,21.1192881 241,22.5 L241,157.5 C241,158.880712 239.880712,160 238.5,160 C237.119288,160 236,158.880712 236,157.5 L236,22.5 C236,21.1192881 237.119288,20 238.5,20 Z M238.5,21 C237.671573,21 237,21.6715729 237,22.5 L237,22.5 L237,157.5 C237,158.328427 237.671573,159 238.5,159 C239.328427,159 240,158.328427 240,157.5 L240,157.5 L240,22.5 C240,21.6715729 239.328427,21 238.5,21 Z" id="选择背景色"></path>
                <rect id="选择背景色" fill="#40A9FF" x="236" y="56" width="5" height="40" rx="2.5"></rect>
                <path d="M238.5,56 C239.880712,56 241,57.1192881 241,58.5 L241,93.5 C241,94.8807119 239.880712,96 238.5,96 C237.119288,96 236,94.8807119 236,93.5 L236,58.5 C236,57.1192881 237.119288,56 238.5,56 Z M238.5,57 C237.671573,57 237,57.6715729 237,58.5 L237,58.5 L237,93.5 C237,94.3284271 237.671573,95 238.5,95 C239.328427,95 240,94.3284271 240,93.5 L240,93.5 L240,58.5 C240,57.6715729 239.328427,57 238.5,57 Z" id="选择背景色"></path>
            </g>
        </g>
    </g>
</svg>