<?xml version="1.0" encoding="UTF-8"?>
<svg width="245px" height="144px" viewBox="0 0 245 144" version="1.1" xmlns="http://www.w3.org/2000/svg" xmlns:xlink="http://www.w3.org/1999/xlink">
    <title>selector</title>
    <defs>
        <rect id="path-1" x="0" y="0" width="245" height="144" rx="2"></rect>
    </defs>
    <g id="页面-1" stroke="none" stroke-width="1" fill="none" fill-rule="evenodd">
        <g id="组件图例" transform="translate(-139.000000, -1452.000000)">
            <g id="selector" transform="translate(139.000000, 1452.000000)">
                <mask id="mask-2" fill="white">
                    <use xlink:href="#path-1"></use>
                </mask>
                <use id="选择背景色" fill="#FFFFFF" xlink:href="#path-1"></use>
                <rect id="选择背景色" stroke="#C5E5FF" fill="#FFFFFF" mask="url(#mask-2)" x="30.5" y="60.5" width="179" height="91" rx="4"></rect>
                <text id="输入文本" mask="url(#mask-2)" font-size="14" fill="#84A4F6">
                    <tspan x="61" y="82">Group </tspan>
                </text>
                <text id="输入文本" mask="url(#mask-2)" font-size="14" fill="#84A4F6">
                    <tspan x="61" y="138">Form</tspan>
                </text>
                <rect id="选择背景色" fill="#E5F6FF" mask="url(#mask-2)" x="31" y="92" width="178" height="28"></rect>
                <text id="输入文本" mask="url(#mask-2)" font-size="14" fill="#84A4F6">
                    <tspan x="61" y="110">Text</tspan>
                </text>
                <rect id="选择背景色" fill="#40A9FF" mask="url(#mask-2)" x="40" y="99" width="14" height="14" rx="3.11111111"></rect>
                <path d="M49.8400502,103.204699 C50.0170869,102.996421 50.3294465,102.971094 50.537725,103.148131 C50.729982,103.31155 50.7663509,103.590273 50.6315644,103.796003 L50.5942932,103.845806 L46.3872225,108.795301 C46.2212388,108.990576 45.9369851,109.024586 45.7310208,108.883582 L45.6812745,108.844677 L43.4540017,106.864879 C43.2496951,106.683273 43.2312925,106.37043 43.4128984,106.166123 C43.5805346,105.977532 43.8599949,105.947345 44.0626896,106.086655 L44.1116548,106.12502 L45.9606061,107.768455 L49.8400502,103.204699 Z" id="路径" fill="#FFFFFF" mask="url(#mask-2)"></path>
                <rect id="选择背景色" fill="#40A9FF" mask="url(#mask-2)" x="40" y="127" width="14" height="14" rx="3.11111111"></rect>
                <path d="M49.8400502,131.204699 C50.0170869,130.996421 50.3294465,130.971094 50.537725,131.148131 C50.729982,131.31155 50.7663509,131.590273 50.6315644,131.796003 L50.5942932,131.845806 L46.3872225,136.795301 C46.2212388,136.990576 45.9369851,137.024586 45.7310208,136.883582 L45.6812745,136.844677 L43.4540017,134.864879 C43.2496951,134.683273 43.2312925,134.37043 43.4128984,134.166123 C43.5805346,133.977532 43.8599949,133.947345 44.0626896,134.086655 L44.1116548,134.12502 L45.9606061,135.768455 L49.8400502,131.204699 Z" id="路径" fill="#FFFFFF" mask="url(#mask-2)"></path>
                <rect id="选择背景色" stroke="#40A9FF" fill="#FFFFFF" mask="url(#mask-2)" x="40.5" y="71.5" width="13" height="13" rx="3.11111111"></rect>
                <path d="M49.8400502,75.2046993 C50.0170869,74.9964208 50.3294465,74.9710944 50.537725,75.148131 C50.729982,75.3115495 50.7663509,75.5902727 50.6315644,75.7960029 L50.5942932,75.8458058 L46.3872225,80.7953007 C46.2212388,80.9905757 45.9369851,81.0245855 45.7310208,80.8835822 L45.6812745,80.8446773 L43.4540017,78.8648794 C43.2496951,78.6832735 43.2312925,78.3704296 43.4128984,78.1661229 C43.5805346,77.9775322 43.8599949,77.9473449 44.0626896,78.0866546 L44.1116548,78.1250196 L45.9606061,79.7684545 L49.8400502,75.2046993 Z" id="路径" fill="#40A9FF" mask="url(#mask-2)"></path>
                <rect id="矩形" stroke="#40A9FF" stroke-width="2" fill="#FFFFFF" mask="url(#mask-2)" x="31" y="25" width="178" height="26" rx="4"></rect>
                <path d="M186.095478,35.3227502 C186.324876,35.0933513 186.685842,35.0757053 186.935481,35.269812 L186.995432,35.3227502 L191,39.3268182 L195.004568,35.3227502 C195.233967,35.0933513 195.594933,35.0757053 195.844572,35.269812 L195.904522,35.3227502 C196.133921,35.5521491 196.151567,35.9131143 195.957461,36.1627542 L195.904522,36.2227043 L191.449977,40.6772498 C191.220578,40.9066487 190.859613,40.9242947 190.609973,40.730188 L190.550023,40.6772498 L186.095478,36.2227043 C185.846962,35.9741889 185.846962,35.5712657 186.095478,35.3227502 Z" id="路径" fill="#40A9FF" mask="url(#mask-2)"></path>
                <path d="M49,37.3636364 C50.5815427,37.3636364 51.8636364,36.0815427 51.8636364,34.5 C51.8636364,32.9184573 50.5815427,31.6363636 49,31.6363636 C47.4184573,31.6363636 46.1363636,32.9184573 46.1363636,34.5 C46.1363636,36.0815427 47.4184573,37.3636364 49,37.3636364 Z M43.9090909,44.3636364 L43.9090909,43.0909091 C43.9090909,41.3336394 45.3336394,39.9090909 47.0909091,39.9090909 L50.9090909,39.9090909 C52.6663606,39.9090909 54.0909091,41.3336394 54.0909091,43.0909091 L54.0909091,44.3636364 L54.0909091,44.3636364" id="形状结合" stroke="#40A9FF" stroke-width="1.5" stroke-linecap="round" stroke-linejoin="round" mask="url(#mask-2)"></path>
                <rect id="选择背景色" fill="#E5F6FF" mask="url(#mask-2)" x="62" y="30" width="50" height="16"></rect>
                <path d="M98.7888542,34.0234752 L98.8402401,34.0688508 L102,37.2281818 L105.15976,34.0688508 C105.372773,33.8558376 105.718136,33.8558376 105.931149,34.0688508 C106.127777,34.2654785 106.142902,34.5748772 105.976525,34.7888542 L105.931149,34.8402401 L102.771818,38 L105.931149,41.1597599 C106.144162,41.3727732 106.144162,41.7181359 105.931149,41.9311492 C105.734522,42.1277768 105.425123,42.142902 105.211146,41.9765248 L105.15976,41.9311492 L102,38.7718182 L98.8402401,41.9311492 C98.6272268,42.1441624 98.2818641,42.1441624 98.0688508,41.9311492 C97.8722232,41.7345215 97.857098,41.4251228 98.0234752,41.2111458 L98.0688508,41.1597599 L101.228182,38 L98.0688508,34.8402401 C97.8558376,34.6272268 97.8558376,34.2818641 98.0688508,34.0688508 C98.2490928,33.8886089 98.5240939,33.8608793 98.7334925,33.9856622 L98.7888542,34.0234752 Z" id="路径" fill="#40A9FF" mask="url(#mask-2)"></path>
                <text id="输入文本" mask="url(#mask-2)" font-size="12" fill="#40A9FF">
                    <tspan x="67" y="41">Text</tspan>
                </text>
                <rect id="选择背景色" fill="#E5F6FF" mask="url(#mask-2)" x="116" y="30" width="59" height="16"></rect>
                <path d="M161.788854,34.0234752 L161.84024,34.0688508 L165,37.2281818 L168.15976,34.0688508 C168.372773,33.8558376 168.718136,33.8558376 168.931149,34.0688508 C169.127777,34.2654785 169.142902,34.5748772 168.976525,34.7888542 L168.931149,34.8402401 L165.771818,38 L168.931149,41.1597599 C169.144162,41.3727732 169.144162,41.7181359 168.931149,41.9311492 C168.734522,42.1277768 168.425123,42.142902 168.211146,41.9765248 L168.15976,41.9311492 L165,38.7718182 L161.84024,41.9311492 C161.627227,42.1441624 161.281864,42.1441624 161.068851,41.9311492 C160.872223,41.7345215 160.857098,41.4251228 161.023475,41.2111458 L161.068851,41.1597599 L164.228182,38 L161.068851,34.8402401 C160.855838,34.6272268 160.855838,34.2818641 161.068851,34.0688508 C161.249093,33.8886089 161.524094,33.8608793 161.733493,33.9856622 L161.788854,34.0234752 Z" id="路径" fill="#40A9FF" mask="url(#mask-2)"></path>
                <text id="输入文本" mask="url(#mask-2)" font-size="12" fill="#40A9FF">
                    <tspan x="121" y="41">Form</tspan>
                </text>
            </g>
        </g>
    </g>
</svg>