<?xml version="1.0" encoding="UTF-8"?>
<svg width="265px" height="180px" viewBox="0 0 265 180" version="1.1" xmlns="http://www.w3.org/2000/svg" xmlns:xlink="http://www.w3.org/1999/xlink">
    <title>tabs</title>
    <defs>
        <rect id="path-1" x="0" y="0" width="265" height="180" rx="2"></rect>
    </defs>
    <g id="页面-1" stroke="none" stroke-width="1" fill="none" fill-rule="evenodd">
        <g id="组件图例" transform="translate(-1177.000000, -3630.000000)">
            <g id="tabs" transform="translate(1177.000000, 3630.000000)">
                <rect id="bottom" fill="#40A9FF" x="24" y="96" width="86" height="2"></rect>
                <text font-size="12" fill="#40A9FF">
                    <tspan x="45.068" y="84">Application</tspan>
                </text>
                <path d="M26.7272727,74.5454545 C27.9322576,74.5454545 28.9090909,75.5222878 28.9090909,76.7272727 L28.9090909,78.9090909 L26.7272727,78.9090909 C25.5222878,78.9090909 24.5454545,77.9322576 24.5454545,76.7272727 C24.5454545,75.5222878 25.5222878,74.5454545 26.7272727,74.5454545 Z M33.2727273,74.5454545 C34.4777122,74.5454545 35.4545455,75.5222878 35.4545455,76.7272727 C35.4545455,77.9322576 34.4777122,78.9090909 33.2727273,78.9090909 L31.0909091,78.9090909 L31.0909091,76.7272727 C31.0909091,75.5222878 32.0677424,74.5454545 33.2727273,74.5454545 Z M26.7272727,81.0909091 L28.9090909,81.0909091 L28.9090909,83.2727273 C28.9090909,84.4777122 27.9322576,85.4545455 26.7272727,85.4545455 C25.5222878,85.4545455 24.5454545,84.4777122 24.5454545,83.2727273 C24.5454545,82.0677424 25.5222878,81.0909091 26.7272727,81.0909091 Z M31.0909091,81.0909091 L33.2727273,81.0909091 C34.4777122,81.0909091 35.4545455,82.0677424 35.4545455,83.2727273 C35.4545455,84.4777122 34.4777122,85.4545455 33.2727273,85.4545455 C32.0677424,85.4545455 31.0909091,84.4777122 31.0909091,83.2727273 L31.0909091,81.0909091 Z" id="形状结合" stroke="#3699FF" stroke-width="1.25" fill-opacity="0.2" fill="#3699FF" stroke-linecap="round" stroke-linejoin="round"></path>
                <text font-size="12" fill="#40A9FF">
                    <tspan x="146.138" y="84">Inbox</tspan>
                </text>
                <path d="M128.70941,74.5454545 L133.29059,74.5454545 C134.192492,74.5454545 134.982812,75.1490972 135.220118,76.0192197 L136.384073,80.2870559 C136.430846,80.4585562 136.454545,80.6355267 136.454545,80.8132907 L136.454545,83.4545455 C136.454545,84.559115 135.559115,85.4545455 134.454545,85.4545455 L127.545455,85.4545455 C126.440885,85.4545455 125.545455,84.559115 125.545455,83.4545455 L125.545455,80.8132907 C125.545455,80.6355267 125.569154,80.4585562 125.615927,80.2870559 L126.779882,76.0192197 C127.017188,75.1490972 127.807508,74.5454545 128.70941,74.5454545 Z M126.090909,81.0909091 L128.7538,81.0909091 C129.098798,81.0909091 129.416464,81.2708358 129.594758,81.5614454 L129.636364,81.6363636 C129.803509,81.9706542 130.145179,82.1818182 130.518928,82.1818182 L131.481072,82.1818182 C131.826071,82.1818182 132.143737,82.0018915 132.322031,81.7112819 L132.363636,81.6363636 C132.530782,81.3020731 132.872452,81.0909091 133.2462,81.0909091 L135.909091,81.0909091 C136.210337,81.0909091 136.454545,81.3351174 136.454545,81.6363636 L136.454545,84.3636364 C136.454545,84.9661288 135.966129,85.4545455 135.363636,85.4545455 L126.636364,85.4545455 C126.033871,85.4545455 125.545455,84.9661288 125.545455,84.3636364 L125.545455,81.6363636 C125.545455,81.3351174 125.789663,81.0909091 126.090909,81.0909091 Z" id="形状结合" stroke="#3699FF" stroke-width="1.25" fill-opacity="0.2" fill="#3699FF" stroke-linecap="round" stroke-linejoin="round"></path>
                <text font-size="12" fill="#40A9FF">
                    <tspan x="214.436" y="84">Tree</tspan>
                </text>
                <path d="M199,84.3636364 L196.818182,84.3636364 C196.215689,84.3636364 195.727273,83.8752197 195.727273,83.2727273 L195.727273,80.5454545 L195.727273,78.9090909 M199,80 L196.818182,80 C196.215689,80 195.727273,79.5115834 195.727273,78.9090909 L195.727273,76.7272727 M195.090909,74.5454545 L196.363636,74.5454545 C196.915921,74.5454545 197.363636,74.9931698 197.363636,75.5454545 L197.363636,75.7272727 C197.363636,76.2795575 196.915921,76.7272727 196.363636,76.7272727 L195.090909,76.7272727 C194.538624,76.7272727 194.090909,76.2795575 194.090909,75.7272727 L194.090909,75.5454545 C194.090909,74.9931698 194.538624,74.5454545 195.090909,74.5454545 Z M201.636364,78.9090909 L202.909091,78.9090909 C203.461376,78.9090909 203.909091,79.3568062 203.909091,79.9090909 L203.909091,80.0909091 C203.909091,80.6431938 203.461376,81.0909091 202.909091,81.0909091 L201.636364,81.0909091 C201.084079,81.0909091 200.636364,80.6431938 200.636364,80.0909091 L200.636364,79.9090909 C200.636364,79.3568062 201.084079,78.9090909 201.636364,78.9090909 Z M201.636364,83.2727273 L202.909091,83.2727273 C203.461376,83.2727273 203.909091,83.7204425 203.909091,84.2727273 L203.909091,84.4545455 C203.909091,85.0068302 203.461376,85.4545455 202.909091,85.4545455 L201.636364,85.4545455 C201.084079,85.4545455 200.636364,85.0068302 200.636364,84.4545455 L200.636364,84.2727273 C200.636364,83.7204425 201.084079,83.2727273 201.636364,83.2727273 Z" id="形状结合" stroke="#3699FF" stroke-width="1.25" fill-opacity="0.2" fill="#3699FF" stroke-linecap="round" stroke-linejoin="round"></path>
            </g>
        </g>
    </g>
</svg>