<?xml version="1.0" encoding="UTF-8"?>
<svg width="265px" height="180px" viewBox="0 0 265 180" version="1.1" xmlns="http://www.w3.org/2000/svg" xmlns:xlink="http://www.w3.org/1999/xlink">
    <title>tree</title>
    <defs>
        <rect id="path-1" x="0" y="0" width="265" height="180" rx="2"></rect>
    </defs>
    <g id="页面-1" stroke="none" stroke-width="1" fill="none" fill-rule="evenodd">
        <g id="组件图例" transform="translate(-828.000000, -2700.000000)">
            <g id="tree" transform="translate(828.000000, 2700.000000)">
                <text font-size="12" fill="#40A9FF">
                    <tspan x="80" y="34">node_modules</tspan>
                </text>
                <path d="M54.9090909,25.5454545 L56.7734025,25.5454545 C57.1989429,25.5454545 57.5963282,25.7581287 57.8323756,26.1121998 L58.3494426,26.8878002 C58.5854899,27.2418713 58.9828753,27.4545455 59.4084157,27.4545455 L65.0909091,27.4545455 C65.793817,27.4545455 66.3636364,28.0243649 66.3636364,28.7272727 L66.3636364,35.0909091 C66.3636364,35.793817 65.793817,36.3636364 65.0909091,36.3636364 L54.9090909,36.3636364 C54.206183,36.3636364 53.6363636,35.793817 53.6363636,35.0909091 L53.6363636,26.8181818 C53.6363636,26.115274 54.206183,25.5454545 54.9090909,25.5454545 Z M58.4304062,27.0092457 L57.751412,25.9907543 C57.5659462,25.7125557 57.2537149,25.5454545 56.9193617,25.5454545 L54.2727273,25.5454545 L54.2727273,25.5454545 C54.2727273,24.4910928 55.1274564,23.6363636 56.1818182,23.6363636 L63.7272727,23.6363636 C64.8318422,23.6363636 65.7272727,24.5317941 65.7272727,25.6363636 L65.7272727,27.4545455 L65.7272727,27.4545455 L59.2624565,27.4545455 C58.9281033,27.4545455 58.615872,27.2874443 58.4304062,27.0092457 Z" id="形状结合" stroke="#40A9FF" fill-opacity="0.2" fill="#3699FF" stroke-linecap="round" stroke-linejoin="round"></path>
                <path d="M34.7961236,27.7052145 C34.9927512,27.5085869 35.3021499,27.4934617 35.516127,27.6598389 L35.5675128,27.7052145 L39,31.1372727 L42.4324872,27.7052145 C42.6291148,27.5085869 42.9385136,27.4934617 43.1524906,27.6598389 L43.2038764,27.7052145 C43.400504,27.9018421 43.4156292,28.2112409 43.249252,28.4252179 L43.2038764,28.4766037 L39.3856946,32.2947855 C39.189067,32.4914131 38.8796682,32.5065383 38.6656912,32.3401611 L38.6143054,32.2947855 L34.7961236,28.4766037 C34.5831103,28.2635904 34.5831103,27.9182277 34.7961236,27.7052145 Z" id="路径" fill="#40A9FF"></path>
                <text font-size="12" fill="#40A9FF">
                    <tspan x="80" y="146">public</tspan>
                </text>
                <path d="M54.9090909,137.545455 L56.7734025,137.545455 C57.1989429,137.545455 57.5963282,137.758129 57.8323756,138.1122 L58.3494426,138.8878 C58.5854899,139.241871 58.9828753,139.454545 59.4084157,139.454545 L65.0909091,139.454545 C65.793817,139.454545 66.3636364,140.024365 66.3636364,140.727273 L66.3636364,147.090909 C66.3636364,147.793817 65.793817,148.363636 65.0909091,148.363636 L54.9090909,148.363636 C54.206183,148.363636 53.6363636,147.793817 53.6363636,147.090909 L53.6363636,138.818182 C53.6363636,138.115274 54.206183,137.545455 54.9090909,137.545455 Z M58.4304062,139.009246 L57.751412,137.990754 C57.5659462,137.712556 57.2537149,137.545455 56.9193617,137.545455 L54.2727273,137.545455 L54.2727273,137.545455 C54.2727273,136.491093 55.1274564,135.636364 56.1818182,135.636364 L63.7272727,135.636364 C64.8318422,135.636364 65.7272727,136.531794 65.7272727,137.636364 L65.7272727,139.454545 L65.7272727,139.454545 L59.2624565,139.454545 C58.9281033,139.454545 58.615872,139.287444 58.4304062,139.009246 Z" id="形状结合" stroke="#40A9FF" fill-opacity="0.2" fill="#3699FF" stroke-linecap="round" stroke-linejoin="round"></path>
                <path d="M36.7052145,137.796124 C36.9018421,137.599496 37.2112409,137.584371 37.4252179,137.750748 L37.4766037,137.796124 L41.2947855,141.614305 C41.4914131,141.810933 41.5065383,142.120332 41.3401611,142.334309 L41.2947855,142.385695 L37.4766037,146.203876 C37.2635904,146.41689 36.9182277,146.41689 36.7052145,146.203876 C36.5085869,146.007249 36.4934617,145.69785 36.6598389,145.483873 L36.7052145,145.432487 L40.1372727,142 L36.7052145,138.567513 C36.5085869,138.370885 36.4934617,138.061486 36.6598389,137.847509 L36.7052145,137.796124 Z" id="路径" fill="#40A9FF"></path>
                <text font-size="12" fill="#40A9FF">
                    <tspan x="80" y="174">src</tspan>
                </text>
                <path d="M54.9090909,165.545455 L56.7734025,165.545455 C57.1989429,165.545455 57.5963282,165.758129 57.8323756,166.1122 L58.3494426,166.8878 C58.5854899,167.241871 58.9828753,167.454545 59.4084157,167.454545 L65.0909091,167.454545 C65.793817,167.454545 66.3636364,168.024365 66.3636364,168.727273 L66.3636364,175.090909 C66.3636364,175.793817 65.793817,176.363636 65.0909091,176.363636 L54.9090909,176.363636 C54.206183,176.363636 53.6363636,175.793817 53.6363636,175.090909 L53.6363636,166.818182 C53.6363636,166.115274 54.206183,165.545455 54.9090909,165.545455 Z M58.4304062,167.009246 L57.751412,165.990754 C57.5659462,165.712556 57.2537149,165.545455 56.9193617,165.545455 L54.2727273,165.545455 L54.2727273,165.545455 C54.2727273,164.491093 55.1274564,163.636364 56.1818182,163.636364 L63.7272727,163.636364 C64.8318422,163.636364 65.7272727,164.531794 65.7272727,165.636364 L65.7272727,167.454545 L65.7272727,167.454545 L59.2624565,167.454545 C58.9281033,167.454545 58.615872,167.287444 58.4304062,167.009246 Z" id="形状结合" stroke="#40A9FF" fill-opacity="0.2" fill="#3699FF" stroke-linecap="round" stroke-linejoin="round"></path>
                <path d="M36.7052145,165.796124 C36.9018421,165.599496 37.2112409,165.584371 37.4252179,165.750748 L37.4766037,165.796124 L41.2947855,169.614305 C41.4914131,169.810933 41.5065383,170.120332 41.3401611,170.334309 L41.2947855,170.385695 L37.4766037,174.203876 C37.2635904,174.41689 36.9182277,174.41689 36.7052145,174.203876 C36.5085869,174.007249 36.4934617,173.69785 36.6598389,173.483873 L36.7052145,173.432487 L40.1372727,170 L36.7052145,166.567513 C36.5085869,166.370885 36.4934617,166.061486 36.6598389,165.847509 L36.7052145,165.796124 Z" id="路径" fill="#40A9FF"></path>
                <text font-size="12" fill="#40A9FF">
                    <tspan x="92" y="62">alphanum-sort.js</tspan>
                </text>
                <path d="M66.9090909,52.9090909 C66.9090909,52.206183 67.4789103,51.6363636 68.1818182,51.6363636 L75.8181818,51.6363636 C76.5210897,51.6363636 77.0909091,52.206183 77.0909091,52.9090909 L77.0909091,61.2910009 C77.0909091,61.6285492 76.9568186,61.9522723 76.7181359,62.190955 L74.9182277,63.9908632 C74.6795451,64.2295458 74.3558219,64.3636364 74.0182736,64.3636364 L68.1818182,64.3636364 C67.4789103,64.3636364 66.9090909,63.793817 66.9090909,63.0909091 L66.9090909,52.9090909 Z M77.0909091,61.1818182 L73.9090909,61.1818182 L73.9090909,64.3636364" id="形状结合" stroke="#40A9FF" fill-opacity="0.2" fill="#3699FF" stroke-linecap="round" stroke-linejoin="round"></path>
                <rect id="选择背景色" fill="#E5F6FF" x="33" y="72" width="200" height="28" rx="4"></rect>
                <text font-size="12" fill="#40A9FF">
                    <tspan x="92" y="90">amdefine.js</tspan>
                </text>
                <path d="M66.9090909,80.9090909 C66.9090909,80.206183 67.4789103,79.6363636 68.1818182,79.6363636 L75.8181818,79.6363636 C76.5210897,79.6363636 77.0909091,80.206183 77.0909091,80.9090909 L77.0909091,89.2910009 C77.0909091,89.6285492 76.9568186,89.9522723 76.7181359,90.190955 L74.9182277,91.9908632 C74.6795451,92.2295458 74.3558219,92.3636364 74.0182736,92.3636364 L68.1818182,92.3636364 C67.4789103,92.3636364 66.9090909,91.793817 66.9090909,91.0909091 L66.9090909,80.9090909 Z M77.0909091,89.1818182 L73.9090909,89.1818182 L73.9090909,92.3636364" id="形状结合" stroke="#40A9FF" fill-opacity="0.2" fill="#3699FF" stroke-linecap="round" stroke-linejoin="round"></path>
                <text font-size="12" fill="#40A9FF">
                    <tspan x="92" y="118">boolbase.js</tspan>
                </text>
                <path d="M66.9090909,108.909091 C66.9090909,108.206183 67.4789103,107.636364 68.1818182,107.636364 L75.8181818,107.636364 C76.5210897,107.636364 77.0909091,108.206183 77.0909091,108.909091 L77.0909091,117.291001 C77.0909091,117.628549 76.9568186,117.952272 76.7181359,118.190955 L74.9182277,119.990863 C74.6795451,120.229546 74.3558219,120.363636 74.0182736,120.363636 L68.1818182,120.363636 C67.4789103,120.363636 66.9090909,119.793817 66.9090909,119.090909 L66.9090909,108.909091 Z M77.0909091,117.181818 L73.9090909,117.181818 L73.9090909,120.363636" id="形状结合" stroke="#40A9FF" fill-opacity="0.2" fill="#3699FF" stroke-linecap="round" stroke-linejoin="round"></path>
            </g>
        </g>
    </g>
</svg>